<svg width="163" height="87" viewBox="0 0 163 87" fill="none" xmlns="http://www.w3.org/2000/svg">
<path d="M71.2737 51.4981C71.039 51.4981 70.8044 51.4021 70.5697 51.2101C70.3457 51.0288 70.1484 50.7248 69.9777 50.2981C69.807 49.8715 69.6897 49.3061 69.6257 48.6021C69.5724 48.1755 69.4657 47.8395 69.3057 47.5941C69.167 47.4021 69.0977 47.1995 69.0977 46.9861C69.0977 46.8261 69.1617 46.6395 69.2897 46.4261C69.3537 46.3301 69.3964 46.2288 69.4177 46.1221C69.4497 46.0155 69.4657 45.8288 69.4657 45.5621L69.4177 43.1941C69.4177 42.8848 69.3217 42.6021 69.1297 42.3461C68.9164 42.0475 68.8097 41.7755 68.8097 41.5301C68.8097 41.3381 68.8524 41.1621 68.9377 41.0021C69.023 40.8421 69.119 40.6875 69.2257 40.5381C69.3324 40.3888 69.4177 40.2448 69.4817 40.1061C69.567 39.9035 69.7164 39.7381 69.9297 39.6101C70.143 39.4821 70.3617 39.4181 70.5857 39.4181C70.7564 39.4181 70.9164 39.4608 71.0657 39.5461C71.215 39.6208 71.4817 39.6581 71.8657 39.6581C72.2604 39.6581 72.735 39.6368 73.2897 39.5941C73.951 39.5408 74.607 39.5141 75.2577 39.5141C75.6737 39.5141 76.063 39.5355 76.4257 39.5781C76.7884 39.6208 77.0977 39.7008 77.3537 39.8181C77.6204 39.9248 77.8177 40.0741 77.9457 40.2661C78.0737 40.4475 78.1377 40.6288 78.1377 40.8101C78.1377 41.0555 78.0417 41.2741 77.8497 41.4661C77.6577 41.6475 77.3857 41.7381 77.0337 41.7381L76.7617 41.7221C76.335 41.6688 75.903 41.6421 75.4657 41.6421C74.5804 41.6421 73.695 41.7115 72.8097 41.8501H72.7937C72.495 41.8715 72.303 41.9195 72.2177 41.9941C72.1324 42.0581 72.0897 42.2448 72.0897 42.5541L72.1057 43.6741H72.1697C72.1697 43.9515 72.1644 44.1915 72.1537 44.3941V44.7621C72.1537 45.0181 72.175 45.1888 72.2177 45.2741C72.2604 45.3488 72.351 45.3861 72.4897 45.3861C72.5964 45.3861 72.719 45.3755 72.8577 45.3541C73.007 45.3328 73.1724 45.3168 73.3537 45.3061L74.1057 45.2421C74.6604 45.1888 75.087 45.1621 75.3857 45.1621C75.7484 45.1621 76.0417 45.2315 76.2657 45.3701C76.6284 45.6261 76.8097 45.9088 76.8097 46.2181C76.8097 46.4848 76.687 46.7301 76.4417 46.9541C76.207 47.1781 75.8657 47.3221 75.4177 47.3861L74.1537 47.5301C73.3644 47.5941 72.831 47.6688 72.5537 47.7541C72.2764 47.8395 72.1377 48.0315 72.1377 48.3301C72.1377 48.5115 72.1697 48.7621 72.2337 49.0821C72.3297 49.6261 72.3777 49.9835 72.3777 50.1541C72.3777 50.5381 72.2657 50.8581 72.0417 51.1141C71.8177 51.3701 71.5617 51.4981 71.2737 51.4981ZM92.5883 51.5141C92.055 51.5141 91.5483 51.3915 91.0683 51.1461C90.5883 50.9008 90.1777 50.5168 89.8363 49.9941C89.3243 49.1835 89.0683 48.1648 89.0683 46.9381C89.0683 46.3621 89.111 45.7755 89.1963 45.1781C89.2817 44.5701 89.3777 43.9728 89.4843 43.3861C89.5803 42.8635 89.6657 42.3621 89.7403 41.8821C89.815 41.3915 89.8523 40.9381 89.8523 40.5221V40.4101C89.8417 40.1115 89.6283 39.9621 89.2123 39.9621C88.679 39.9621 87.975 40.1595 87.1003 40.5541C86.2363 40.9488 85.5377 41.3541 85.0043 41.7701C84.6737 42.0155 84.5083 42.2235 84.5083 42.3941C84.5083 42.4795 84.5563 42.5808 84.6523 42.6981C84.759 42.8048 84.903 42.9381 85.0843 43.0981C85.3723 43.3435 85.751 43.7221 86.2203 44.2341C86.9243 45.0235 87.2763 45.8608 87.2763 46.7461C87.2763 47.7275 86.9083 48.5915 86.1723 49.3381C85.2123 50.3088 84.0603 50.7941 82.7163 50.7941C81.8203 50.7941 81.1003 50.5648 80.5563 50.1061C80.0123 49.6368 79.6177 49.0288 79.3723 48.2821C79.127 47.5355 79.0043 46.7515 79.0043 45.9301C79.0043 45.0448 79.1217 44.1915 79.3563 43.3701C79.591 42.5381 79.911 41.8555 80.3163 41.3221C80.7217 40.7888 81.1697 40.5221 81.6603 40.5221C81.799 40.5221 81.9377 40.5435 82.0763 40.5861H82.0923C82.2097 40.5861 82.4923 40.4155 82.9403 40.0741C83.3457 39.7648 83.863 39.4128 84.4923 39.0181C85.1323 38.6128 85.847 38.2608 86.6363 37.9621C87.4363 37.6528 88.279 37.4981 89.1643 37.4981C89.463 37.4981 89.767 37.5195 90.0763 37.5621C90.8123 37.6901 91.3457 37.9355 91.6763 38.2981C92.0177 38.6501 92.2363 39.0501 92.3323 39.4981C92.439 39.9461 92.4977 40.3728 92.5083 40.7781C92.5297 41.0875 92.5617 41.3435 92.6043 41.5461C92.6577 41.7488 92.759 41.8661 92.9083 41.8981C93.6977 42.0368 94.455 42.3195 95.1803 42.7461C95.9057 43.1728 96.5083 43.7115 96.9883 44.3621C97.4683 45.0021 97.7083 45.7061 97.7083 46.4741C97.7083 46.8261 97.6497 47.1835 97.5323 47.5461C97.095 48.7515 96.407 49.7115 95.4683 50.4261C94.5297 51.1515 93.5697 51.5141 92.5883 51.5141ZM83.0843 47.8181C83.3937 47.8181 83.6763 47.6955 83.9323 47.4501C84.199 47.1941 84.3323 46.9168 84.3323 46.6181C84.3323 46.4901 84.3003 46.3621 84.2363 46.2341C84.119 46.0528 83.8097 45.6955 83.3083 45.1621C82.7003 44.5221 82.295 44.2021 82.0923 44.2021C81.943 44.2021 81.8683 44.6395 81.8683 45.5141C81.8683 46.3781 81.991 46.9808 82.2363 47.3221C82.4923 47.6528 82.775 47.8181 83.0843 47.8181ZM92.8603 48.5701C93.2657 48.5701 93.6763 48.3355 94.0923 47.8661C94.5083 47.3861 94.7163 46.9168 94.7163 46.4581C94.7163 46.2021 94.631 45.9781 94.4603 45.7861C93.8737 45.1568 93.1323 44.6928 92.2363 44.3941C92.0443 45.3755 91.9483 46.1701 91.9483 46.7781C91.9483 47.4395 92.039 47.9035 92.2203 48.1701C92.4017 48.4368 92.615 48.5701 92.8603 48.5701ZM108.404 51.3381C108.052 51.3381 107.732 51.1835 107.444 50.8741C107.199 50.5541 107.028 50.2128 106.932 49.8501C106.847 49.4768 106.788 49.0768 106.756 48.6501C106.724 48.2128 106.655 47.7435 106.548 47.2421C106.41 47.2635 106.266 47.4181 106.116 47.7061C105.988 48.0368 105.626 48.5701 105.028 49.3061C104.026 50.4475 103.018 51.0181 102.004 51.0181C101.13 51.0181 100.399 50.6448 99.8123 49.8981C99.2256 49.1408 98.9323 48.2555 98.9323 47.2421C98.9323 46.6021 99.0709 45.9515 99.3483 45.2901C99.9563 43.8395 101.22 42.7088 103.14 41.8981C103.855 41.6208 104.458 41.4821 104.948 41.4821C105.012 41.4821 105.071 41.4875 105.124 41.4981H105.268C105.407 41.4981 105.514 41.4661 105.588 41.4021C105.663 41.3275 105.722 41.1675 105.764 40.9221C105.818 40.6661 105.876 40.2715 105.94 39.7381C106.004 39.2048 106.106 38.4848 106.244 37.5781C106.33 37.0768 106.495 36.7088 106.74 36.4741C106.996 36.2288 107.279 36.1061 107.588 36.1061C107.866 36.1061 108.132 36.1968 108.388 36.3781C108.815 36.7408 109.076 37.5355 109.172 38.7621C109.247 39.7648 109.284 40.9008 109.284 42.1701V43.0341C109.284 44.1755 109.3 45.3168 109.332 46.4581C109.375 47.5995 109.471 48.6661 109.62 49.6581C109.642 49.7755 109.652 49.8875 109.652 49.9941C109.652 50.4315 109.524 50.7621 109.268 50.9861C109.012 51.2208 108.724 51.3381 108.404 51.3381ZM102.1 48.4101C102.655 48.4101 103.3 47.7381 104.036 46.3941C104.303 45.9035 104.543 45.4128 104.756 44.9221C104.97 44.4208 105.076 44.0475 105.076 43.8021C105.076 43.6528 105.023 43.5781 104.916 43.5781L104.804 43.5941C104.004 43.9141 103.359 44.3035 102.868 44.7621C102.388 45.2208 102.036 45.6955 101.812 46.1861C101.599 46.6768 101.492 47.1088 101.492 47.4821C101.492 47.7595 101.546 47.9835 101.652 48.1541C101.759 48.3248 101.908 48.4101 102.1 48.4101ZM115.531 51.5781C114.838 51.5781 114.384 50.9168 114.171 49.5941C114.022 48.7195 113.942 47.3915 113.931 45.6101C113.931 44.6501 113.899 43.8341 113.835 43.1621C113.782 42.4901 113.622 42.1541 113.355 42.1541C112.8 42.1968 112.32 42.2768 111.915 42.3941C111.584 42.5008 111.291 42.5541 111.035 42.5541C110.822 42.5541 110.635 42.5008 110.475 42.3941C110.315 42.2768 110.166 42.0688 110.027 41.7701C109.931 41.5568 109.883 41.3648 109.883 41.1941C109.883 40.7568 110.15 40.4261 110.683 40.2021C111.206 39.9781 111.883 39.8181 112.715 39.7221C113.547 39.6155 114.448 39.5301 115.419 39.4661C116.902 39.3808 118.272 39.2208 119.531 38.9861C119.648 38.9648 119.766 38.9541 119.883 38.9541C120.246 38.9541 120.539 39.0608 120.763 39.2741C120.998 39.4768 121.115 39.7115 121.115 39.9781C121.115 40.2555 120.971 40.5275 120.683 40.7941C120.406 41.0501 119.936 41.2421 119.275 41.3701C118.486 41.5088 117.862 41.5941 117.403 41.6261C116.955 41.6581 116.646 41.7115 116.475 41.7861C116.304 41.8608 116.219 42.0528 116.219 42.3621C116.219 42.5861 116.246 42.8955 116.299 43.2901C116.406 43.9835 116.486 45.1035 116.539 46.6501C116.56 47.4928 116.592 48.2021 116.635 48.7781C116.678 49.2901 116.699 49.7221 116.699 50.0741C116.699 50.5008 116.646 50.8261 116.539 51.0501C116.432 51.2741 116.23 51.4288 115.931 51.5141C115.792 51.5568 115.659 51.5781 115.531 51.5781ZM122.899 51.2901C122.035 51.2901 121.502 50.9328 121.299 50.2181C121.16 49.7488 121.091 49.2208 121.091 48.6341C121.091 48.1648 121.107 47.6848 121.139 47.1941C121.171 46.7461 121.187 46.3408 121.187 45.9781C121.187 45.5941 121.155 45.2741 121.091 45.0181C120.942 44.4741 120.867 43.9195 120.867 43.3541V42.6181C120.867 42.3301 120.963 42.0795 121.155 41.8661C121.358 41.6528 121.603 41.5461 121.891 41.5461C122.126 41.5461 122.376 41.6421 122.643 41.8341C122.91 42.0155 123.096 42.2608 123.203 42.5701C123.246 42.6981 123.294 42.7621 123.347 42.7621C123.432 42.7621 123.619 42.6501 123.907 42.4261C124.622 41.8821 125.315 41.4928 125.987 41.2581C126.659 41.0235 127.272 40.9061 127.827 40.9061C128.51 40.9061 129.059 41.0501 129.475 41.3381C129.902 41.6155 130.115 41.9568 130.115 42.3621C130.115 42.5115 130.083 42.6661 130.019 42.8261C129.902 43.0928 129.763 43.2741 129.603 43.3701C129.443 43.4661 129.267 43.5141 129.075 43.5141C128.915 43.5141 128.739 43.4981 128.547 43.4661C128.355 43.4235 128.158 43.4021 127.955 43.4021C127.774 43.4021 127.587 43.4341 127.395 43.4981C126.35 43.9141 125.587 44.4421 125.107 45.0821C124.638 45.7221 124.334 46.3995 124.195 47.1141C124.067 47.8181 123.998 48.4848 123.987 49.1141C123.966 49.5301 123.928 49.9035 123.875 50.2341C123.832 50.5648 123.736 50.8208 123.587 51.0021C123.448 51.1941 123.219 51.2901 122.899 51.2901ZM134.347 51.2261C133.557 51.2261 132.907 51.0075 132.395 50.5701C131.883 50.1435 131.499 49.5781 131.243 48.8741C130.997 48.1701 130.875 47.4181 130.875 46.6181C130.875 45.4235 131.136 44.2715 131.659 43.1621C132.192 42.0528 132.971 41.2635 133.995 40.7941C134.315 40.6661 134.587 40.6021 134.811 40.6021C135.067 40.6021 135.275 40.6555 135.435 40.7621C135.605 40.8581 135.76 40.9648 135.899 41.0821C136.08 41.2528 136.267 41.3648 136.459 41.4181C137.333 41.6421 137.995 42.2181 138.443 43.1461C138.891 44.0741 139.131 45.0341 139.163 46.0261C138.949 47.6581 138.379 48.9115 137.451 49.7861C136.448 50.7461 135.413 51.2261 134.347 51.2261ZM134.379 48.2821C134.485 48.2821 134.603 48.2501 134.731 48.1861C135.125 47.9621 135.44 47.6315 135.675 47.1941C135.92 46.7461 136.043 46.2821 136.043 45.8021L136.027 45.4821C135.973 45.0235 135.845 44.6128 135.643 44.2501C135.451 43.8875 135.125 43.4608 134.667 42.9701C134.325 43.2048 134.059 43.6581 133.867 44.3301C133.685 45.0021 133.595 45.6795 133.595 46.3621C133.595 46.8848 133.653 47.3381 133.771 47.7221C133.899 48.0955 134.101 48.2821 134.379 48.2821ZM144.645 52.6021C143.866 52.6021 143.2 52.0208 142.645 50.8581C142.282 50.0795 141.888 48.9008 141.461 47.3221C141.248 46.4688 141.029 45.7435 140.805 45.1461C140.549 44.4421 140.421 43.8768 140.421 43.4501C140.421 43.0235 140.517 42.7141 140.709 42.5221C140.901 42.3301 141.125 42.2341 141.381 42.2341C141.648 42.2341 141.914 42.3248 142.181 42.5061C142.448 42.6875 142.645 42.9275 142.773 43.2261C143.349 44.7088 143.77 45.9301 144.037 46.8901C144.197 47.4341 144.33 47.8608 144.437 48.1701C144.554 48.4688 144.677 48.6181 144.805 48.6181C144.986 48.6181 145.232 48.2181 145.541 47.4181C145.786 46.8101 146.309 45.3381 147.109 43.0021C147.333 42.3941 147.594 41.9568 147.893 41.6901C148.192 41.4128 148.485 41.2741 148.773 41.2741C149.061 41.2741 149.306 41.3915 149.509 41.6261C149.712 41.8501 149.813 42.1541 149.813 42.5381C149.813 42.7195 149.781 42.9168 149.717 43.1301C149.333 44.4848 148.917 45.8181 148.469 47.1301C148.032 48.4315 147.562 49.5568 147.061 50.5061C146.57 51.4661 146.058 52.0901 145.525 52.3781C145.205 52.5275 144.912 52.6021 144.645 52.6021ZM156.421 51.3541H155.973C154.747 51.3541 153.749 51.1141 152.981 50.6341C152.224 50.1541 151.664 49.5301 151.301 48.7621C150.949 47.9835 150.773 47.1515 150.773 46.2661C150.773 45.4768 150.901 44.6875 151.157 43.8981C151.424 43.1088 151.792 42.3941 152.261 41.7541C152.741 41.1035 153.312 40.5861 153.973 40.2021C154.645 39.8075 155.387 39.6101 156.197 39.6101C156.443 39.6101 156.699 39.6315 156.965 39.6741C157.925 39.8448 158.613 40.1968 159.029 40.7301C159.456 41.2528 159.669 41.8341 159.669 42.4741C159.669 43.0928 159.509 43.7008 159.189 44.2981C158.869 44.8955 158.437 45.3915 157.893 45.7861C157.349 46.1808 156.741 46.3781 156.069 46.3781C155.525 46.3781 154.955 46.2128 154.357 45.8821C154.315 45.8608 154.267 45.8341 154.213 45.8021C154.171 45.7701 154.123 45.7435 154.069 45.7221C154.027 45.6901 153.984 45.6741 153.941 45.6741C153.856 45.6741 153.813 45.8395 153.813 46.1701C153.813 46.8208 154.059 47.3595 154.549 47.7861C155.051 48.2128 155.675 48.4261 156.421 48.4261C157.157 48.4261 157.899 48.2128 158.645 47.7861C158.827 47.6901 159.003 47.6048 159.173 47.5301C159.355 47.4555 159.563 47.4181 159.797 47.4181L160.005 47.4341C160.4 47.4768 160.693 47.5941 160.885 47.7861C161.077 47.9675 161.173 48.1861 161.173 48.4421C161.173 48.8261 160.976 49.2475 160.581 49.7061C160.197 50.1648 159.648 50.5541 158.933 50.8741C158.219 51.1941 157.381 51.3541 156.421 51.3541ZM156.037 44.1221C156.101 44.1221 156.187 44.0955 156.293 44.0421C156.613 43.8821 156.848 43.6955 156.997 43.4821C157.147 43.2688 157.221 43.0608 157.221 42.8581C157.221 42.6555 157.157 42.4848 157.029 42.3461C156.901 42.1968 156.715 42.1221 156.469 42.1221C156.107 42.1221 155.712 42.2928 155.285 42.6341C154.869 42.9755 154.661 43.2368 154.661 43.4181C154.661 43.5035 154.72 43.5515 154.837 43.5621C155.2 43.5941 155.488 43.7168 155.701 43.9301C155.819 44.0581 155.931 44.1221 156.037 44.1221Z" fill="black"/>
<path d="M53.4417 57.622C45.4962 63.0343 34.6291 60.9726 29.2175 53.0281C23.8059 45.0836 25.8659 34.2162 33.8114 28.8039C41.7569 23.3916 52.624 25.4534 58.0356 33.3978C63.4472 41.3423 61.3862 52.2105 53.4417 57.622ZM34.52 29.8441C27.1484 34.8654 25.2374 44.9472 30.2587 52.3188C35.2801 59.6904 45.3626 61.6025 52.7331 56.5819C60.1037 51.5612 62.0168 41.478 56.9954 34.1064C51.9741 26.7348 41.8916 24.8227 34.52 29.8441Z" fill="#CDCDCD"/>
<path d="M55.8976 31.5744L55.3728 31.5748C54.8837 31.5749 54.4453 31.5194 54.1108 31.4577C54.1579 31.1195 54.2927 30.5311 54.3988 30.1317L54.5334 29.6245L54.0232 29.7455C53.4381 29.8844 52.9044 29.9224 52.5791 29.9294L52.5702 29.901C52.5022 29.6953 52.4746 28.8619 52.4755 28.3346L52.4768 27.8101L52.0132 28.0569C51.628 28.2623 51.2549 28.4084 50.9594 28.5076C51.0006 28.079 51.065 27.6405 51.067 27.6347L51.144 27.1156L50.6509 27.2925C50.0456 27.5097 49.4877 27.6047 49.1669 27.6447C49.0867 27.1637 49.0326 26.5269 49.0322 26.5197L48.9867 25.997L48.5469 26.2831C48.264 26.4668 47.9859 26.6157 47.7397 26.7324C47.9284 25.7847 47.9993 25.0672 47.9537 24.5972C47.828 23.3115 47.7156 20.3513 47.6981 19.8741C47.7146 19.6934 47.6667 19.3479 47.1499 19.0517C46.8417 18.8746 46.4292 18.7535 45.9865 18.7115C45.3634 18.6514 44.7849 18.7558 44.4395 18.9911C44.2878 19.0944 44.1811 19.2241 44.1269 19.3691C43.9335 19.6403 43.5796 20.2925 43.7141 21.2917C43.7775 21.7571 43.9078 22.2699 44.0457 22.8137C44.2587 23.6528 44.4796 24.5211 44.4293 25.172C44.3985 25.5651 44.2344 26.247 43.9504 27.1561C43.7048 26.9408 43.2638 26.4565 42.9785 26.1213L42.6374 25.7219L42.4466 26.2105C42.2571 26.6967 42.027 27.1055 41.8469 27.3917C41.4913 27.0878 41.1002 26.7075 41.0957 26.7031L40.7199 26.3364L40.5743 26.8407C40.4463 27.2849 40.2817 27.6732 40.1364 27.9687C39.7722 27.7997 39.2329 27.4903 39.0122 27.3601L38.5607 27.0916L38.537 27.6163C38.5167 28.0622 38.4513 28.4639 38.3822 28.781C37.9323 28.6359 37.4105 28.4272 37.4046 28.4252L36.9178 28.2302L36.9759 28.7517C37.0359 29.287 37.0201 29.7703 36.9936 30.1035C36.6604 30.0814 36.0361 29.9755 35.6167 29.8906L35.1029 29.786L35.253 30.2884C35.4056 30.7966 35.4767 31.2688 35.5089 31.5979C35.1856 31.6321 34.5255 31.6256 34.0837 31.607L33.5597 31.5844L33.7877 32.0577C34.0388 32.5783 34.1892 33.0745 34.2691 33.3967C33.922 33.4201 33.3513 33.4127 32.9563 33.3967L32.4323 33.3741L32.6605 33.8457C32.9468 34.44 33.1006 34.9939 33.1711 35.3044C32.8454 35.3792 32.2171 35.4591 31.7893 35.4984L31.2671 35.5466L31.5562 35.9843C31.874 36.464 32.0885 36.9331 32.2122 37.2403C31.9278 37.347 31.2391 37.5011 30.7818 37.5875L30.2662 37.6852L30.5957 38.0939C30.9648 38.5522 31.2235 39.0046 31.375 39.302C31.0526 39.4586 30.477 39.6752 30.1226 39.798L29.627 39.9691L30.0119 40.325C30.3629 40.6486 30.6431 40.9828 30.8386 41.2412C30.4722 41.4038 29.9633 41.5884 29.7484 41.6628L29.2528 41.8338L29.6378 42.1898C30.0738 42.5919 30.4005 43.01 30.5893 43.276C30.1414 43.4731 29.5261 43.6866 29.5186 43.6888L29.023 43.8598L29.4079 44.2157C29.7672 44.5471 30.0509 44.8865 30.2538 45.1579C30.1395 45.2523 29.9477 45.3979 29.6269 45.6164C29.3646 45.7951 29.1444 45.9346 29.1424 45.936L28.6991 46.2169L29.1564 46.4741C29.679 46.7678 30.0964 47.103 30.3418 47.32L30.3296 47.3463C30.2387 47.5432 29.6934 48.1743 29.3354 48.5607L28.9778 48.9453L29.4853 49.0782C29.9078 49.1895 30.28 49.335 30.5654 49.4632C30.2442 49.7495 29.8979 50.0274 29.8935 50.0319L29.4841 50.3603L29.9672 50.5653C30.4784 50.7827 30.8996 51.042 31.1801 51.2335C31.0049 51.5269 30.6479 52.0161 30.3929 52.3444L30.0707 52.7589L30.5885 52.8473C31.0329 52.9227 31.4282 53.0405 31.7261 53.1451C31.6727 53.417 31.4004 54.1186 31.2075 54.5666L31.0001 55.0485L31.5228 55.003C31.9908 54.9633 32.4188 54.9793 32.741 55.0074C32.5827 55.3102 32.2562 55.8177 32.0213 56.1578L31.7233 56.5903L32.2449 56.6491C32.7308 56.7037 33.1607 56.8085 33.4857 56.9067C33.4006 57.2377 33.1999 57.8065 33.05 58.1922L32.8599 58.6818L33.3807 58.6181C33.9763 58.5454 34.511 58.5683 34.8366 58.597L34.8428 58.6259C34.8872 58.8387 34.8216 59.6696 34.7607 60.1926L34.7003 60.7139L35.1884 60.5209C35.5947 60.3597 35.982 60.2564 36.2864 60.1901C36.1977 60.6106 36.0833 61.0396 36.0831 61.0458L35.9485 61.553L36.4587 61.432C37.0005 61.3045 37.4947 61.2635 37.8316 61.2515C37.8635 61.5914 37.8672 62.198 37.8555 62.6126L37.8418 63.1365L38.3103 62.9014C38.8182 62.647 39.3002 62.4912 39.6284 62.4026C39.7475 62.6876 39.9286 63.3609 40.0328 63.8091L40.1518 64.3207L40.5459 63.9742C40.8565 63.7011 41.2181 63.4413 41.5874 63.2212L41.5974 63.2294C41.7639 63.3681 42.2317 64.0592 42.5113 64.5049L42.7891 64.9502L43.0504 64.4947C43.2584 64.1325 43.485 63.8221 43.6718 63.5898L43.6791 63.5938C43.8734 63.6896 44.4874 64.254 44.8625 64.6241L45.2352 64.9929L45.3843 64.4893C45.4615 64.2282 45.5593 63.962 45.6743 63.6991C45.9476 63.792 46.5952 64.137 47.0093 64.3771L47.4638 64.6391L47.4803 64.1148C47.4843 63.9665 47.4952 63.8151 47.5101 63.6609C47.8307 63.8011 48.313 64.0532 48.6461 64.2404L49.1033 64.4976L49.1136 63.973C49.1219 63.5667 49.1694 63.1937 49.2218 62.8985C49.4666 62.9583 50.1758 63.3034 50.6225 63.5407L51.0855 63.7865L51.0841 63.2623C51.0831 62.8159 51.1299 62.409 51.1801 62.1017C51.5654 62.2818 51.9465 62.4844 51.9513 62.4871L52.415 62.7339L52.4135 62.2097C52.4121 61.6526 52.4829 61.1618 52.55 60.8264C52.9481 60.8778 53.5641 61.0134 53.8144 61.0725L54.3242 61.1933L54.1902 60.6859C54.0662 60.2153 54.0092 59.777 53.9836 59.4553C54.3846 59.4823 54.9239 59.556 55.1478 59.5895L55.6665 59.6683L55.4917 59.1737C55.4262 58.9873 55.3665 58.7939 55.316 58.5942L55.4391 58.6274L55.3216 58.1178C55.318 58.1038 55.3151 58.0907 55.3125 58.076C55.7906 58.1104 56.3865 58.1966 56.3934 58.1979L56.9128 58.2732L56.7342 57.7798C56.5587 57.2931 56.461 56.8391 56.4088 56.507C56.5766 56.5023 56.6894 56.5004 56.6911 56.5008L57.2152 56.4948L57.2061 56.4771C57.4183 56.5066 57.5715 56.5312 57.5733 56.5315L58.0921 56.6147L57.921 56.1191C57.7135 55.5193 57.6251 54.9689 57.5877 54.6387C57.8138 54.5477 58.6054 54.4256 59.1118 54.3673L59.6329 54.3064L59.3335 53.8757C58.9455 53.3193 58.701 52.7731 58.5856 52.4826C58.9457 52.3064 59.5367 52.0793 59.7831 51.9895L60.2759 51.8099L59.8844 51.4599C59.4916 51.1078 59.1842 50.7426 58.9884 50.4859L58.9904 50.4845C59.1208 50.3102 59.7892 49.8113 60.221 49.5113L60.6524 49.2129L60.1857 48.9727C59.8839 48.8182 59.5835 48.6327 59.2922 48.423L59.2138 48.3609C59.1549 48.314 59.097 48.2664 59.0387 48.2161C59.3851 48.0132 60.0185 47.7272 60.2595 47.623L60.7417 47.4146L60.3306 47.0885C59.8792 46.7299 59.5322 46.3526 59.3192 46.0971C59.6806 45.7864 60.1412 45.4426 60.1473 45.4385L60.5682 45.1247L60.0938 44.9018C59.8243 44.7748 59.5562 44.6258 59.2939 44.4565C59.476 44.1644 59.8317 43.691 60.0854 43.3741L60.4139 42.9643L59.8985 42.8683C59.4795 42.7907 59.1041 42.6758 58.8156 42.5738C59.13 42.2425 59.5042 41.8931 59.5096 41.8879L59.8927 41.5295L59.3964 41.3604C58.8708 41.1813 58.4311 40.9542 58.1377 40.7835C58.2901 40.4786 58.611 39.9629 58.8407 39.6174L59.1315 39.1808L58.6099 39.131C58.1892 39.0905 57.8088 39.0121 57.5036 38.9319C57.6987 38.6699 58.1438 38.1912 58.4537 37.8796L58.8242 37.5072L58.3216 37.3574C57.7962 37.2007 57.3511 36.9922 57.0583 36.8376C57.1663 36.5315 57.4562 35.9395 57.6634 35.5477L57.9092 35.0848L57.384 35.0869C56.9651 35.0887 56.582 35.0481 56.2854 35.0026C56.304 34.7348 56.4999 33.9937 56.6431 33.5211L56.7946 33.0189L56.2797 33.122C55.8438 33.2089 55.4393 33.2429 55.1154 33.2519L55.1973 32.9801L55.1853 32.9823C55.3226 32.6772 55.5104 32.3032 55.6569 32.0294L55.9044 31.5667L55.8976 31.5744Z" fill="#CBCBCB"/>
<path d="M42.7238 17.1568C42.7238 17.1568 42.106 17.7983 42.2694 19.0117C42.4329 20.2252 43.0973 21.9076 43.0075 23.0731C42.9176 24.2385 41.8439 27.1049 41.8439 27.1049L43.1794 29.0654L44.9937 27.6585C44.9937 27.6585 46.1327 23.9629 45.988 22.4906C45.8433 21.0183 45.7198 17.4956 45.7198 17.4956L42.7238 17.1568Z" fill="#433709"/>
<path d="M43.9039 17.295C43.9308 17.9998 44.266 20.9102 44.3926 22.1953C44.5373 23.6676 43.3983 27.3631 43.3983 27.3631L42.1993 28.0523L42.8688 29.0351L44.6831 27.6282C44.6831 27.6282 45.8221 23.9326 45.6774 22.4603C45.5328 20.988 45.4092 17.4653 45.4092 17.4653L43.9056 17.2953L43.9039 17.295Z" fill="#261C02"/>
<path d="M45.7267 17.5691C45.6896 17.953 44.9709 18.1995 44.1226 18.1172C43.2733 18.0356 42.6161 17.6566 42.6525 17.2717C42.6896 16.8879 43.4083 16.6413 44.2566 16.7236C45.1059 16.8053 45.7631 17.1843 45.7267 17.5691Z" fill="#FCD3B3"/>
<path d="M42.1407 25.5814C42.1407 25.5814 36.2753 25.6158 31.8198 33.449C27.3652 41.2814 28.0881 47.8556 31.1323 53.5118C34.1754 59.1687 37.6639 61.9222 43.0562 62.321C48.4476 62.7205 57.1878 54.3693 57.1786 48.5917C57.1671 41.1608 55.1529 34.4264 53.057 31.29C50.961 28.1537 48.0404 26.6788 46.5333 26.0851C45.0278 25.4917 43.4124 25.3933 43.4124 25.3933L42.1417 25.5807L42.1407 25.5814Z" fill="#4B5B19"/>
<path d="M39.0295 24.8551C39.0295 24.8551 39.9996 25.8012 40.3379 25.9653L40.6752 26.1302L40.0144 27.422C40.0144 27.422 39.1017 26.6019 39.1165 26.5753C39.1314 26.5486 39.0285 24.8558 39.0285 24.8558L39.0295 24.8551Z" fill="#6B7B3E"/>
<path d="M39.0304 24.8551C38.7305 25.895 38.2438 26.6452 38.2438 26.6452L40.0159 27.423L39.0311 24.8561L39.0304 24.8551Z" fill="#4B5B19"/>
<path d="M36.9479 25.5768C36.9479 25.5768 38.1121 26.2706 38.4796 26.3519L38.847 26.4332L38.5054 27.8436C38.5054 27.8436 37.4269 27.258 37.4352 27.2283C37.4435 27.1987 36.9489 25.5761 36.9489 25.5761L36.9479 25.5768Z" fill="#6B7B3E"/>
<path d="M36.9488 25.5768C36.8991 26.6579 36.6018 27.5011 36.6018 27.5011L38.5064 27.8436L36.9488 25.5768Z" fill="#4B5B19"/>
<path d="M35.3417 26.6934C35.3417 26.6934 36.601 27.1964 36.9751 27.2192L37.3509 27.2422L37.2346 28.6883C37.2346 28.6883 36.078 28.2788 36.0812 28.2482C36.0843 28.2175 35.3427 26.6927 35.3427 26.6927L35.3417 26.6934Z" fill="#6B7B3E"/>
<path d="M35.3411 26.6934C35.4619 27.7694 35.2987 28.6488 35.2987 28.6488L37.233 28.689L35.3401 26.6941L35.3411 26.6934Z" fill="#4B5B19"/>
<path d="M30.8711 31.8296C30.8711 31.8296 32.2257 31.8866 32.5869 31.7846L32.949 31.682L33.3194 33.0846C33.3194 33.0846 32.0918 33.082 32.085 33.0522C32.0782 33.0223 30.8728 31.8299 30.8728 31.8299L30.8711 31.8296Z" fill="#6B7B3E"/>
<path d="M30.8707 31.8296C31.341 32.804 31.4795 33.6879 31.4795 33.6879L33.3183 33.0835L30.8718 31.8289L30.8707 31.8296Z" fill="#4B5B19"/>
<path d="M32.0312 29.989C32.0312 29.989 33.3859 30.0459 33.747 29.944L34.1092 29.8413L34.4795 31.244C34.4795 31.244 33.252 31.2414 33.2452 31.2116C33.2383 31.1817 32.033 29.9893 32.033 29.9893L32.0312 29.989Z" fill="#6B7B3E"/>
<path d="M32.0309 29.989C32.5012 30.9634 32.6396 31.8474 32.6396 31.8474L34.4785 31.243L32.0319 29.9883L32.0309 29.989Z" fill="#4B5B19"/>
<path d="M33.5566 28.2177C33.5566 28.2177 34.8852 28.4875 35.2586 28.4431L35.632 28.3988L35.7768 29.8426C35.7768 29.8426 34.5645 29.6466 34.5632 29.616C34.5618 29.5854 33.5584 28.218 33.5584 28.218L33.5566 28.2177Z" fill="#6B7B3E"/>
<path d="M33.5559 28.2177C33.8671 29.2539 33.8634 30.1492 33.8634 30.1492L35.7743 29.8423L33.5559 28.2177Z" fill="#4B5B19"/>
<path d="M40.9484 24.2351C40.9484 24.2351 41.8282 25.2667 42.1493 25.4606L42.4711 25.6555L41.6943 26.8807C41.6943 26.8807 40.8613 25.9794 40.8785 25.9541C40.8958 25.9288 40.9487 24.2334 40.9487 24.2334L40.9484 24.2351Z" fill="#6B7B3E"/>
<path d="M40.9476 24.2351C40.5539 25.243 39.9996 25.9446 39.9996 25.9446L41.6924 26.8814L40.9469 24.2341L40.9476 24.2351Z" fill="#4B5B19"/>
<path d="M27.6895 40.3183C27.6895 40.3183 28.9703 39.8749 29.2686 39.6477L29.568 39.4198L30.4261 40.5892C30.4261 40.5892 29.2828 41.0363 29.2661 41.0117C29.2493 40.9872 27.6895 40.3183 27.6895 40.3183Z" fill="#6B7B3E"/>
<path d="M27.6895 40.3183C28.4837 41.0526 28.9361 41.8247 28.9361 41.8247L30.4261 40.5892L27.6895 40.3183Z" fill="#4B5B19"/>
<path d="M28.0742 38.3994C28.0742 38.3994 29.3551 37.956 29.6534 37.7288L29.9528 37.5009L30.8108 38.6703C30.8108 38.6703 29.6676 39.1174 29.6508 39.0929C29.6341 39.0683 28.0742 38.3994 28.0742 38.3994Z" fill="#6B7B3E"/>
<path d="M28.0742 38.3994C28.8685 39.1337 29.3209 39.9058 29.3209 39.9058L30.8108 38.6703L28.0742 38.3994Z" fill="#4B5B19"/>
<path d="M28.7081 36.1376C28.7081 36.1376 30.0407 35.887 30.3687 35.7056L30.6978 35.5234L31.3754 36.8068C31.3754 36.8068 30.1792 37.0815 30.1655 37.0548C30.1529 37.0274 28.707 36.1383 28.707 36.1383L28.7081 36.1376Z" fill="#6B7B3E"/>
<path d="M28.7072 36.1376C29.3863 36.9803 29.7206 37.8103 29.7206 37.8103L31.3745 36.8067L28.7072 36.1376Z" fill="#4B5B19"/>
<path d="M29.7148 33.9921C29.7148 33.9921 31.0649 33.8661 31.4084 33.7162L31.7529 33.5655L32.309 34.9061C32.309 34.9061 31.092 35.0689 31.0814 35.0401C31.0708 35.0114 29.7148 33.9921 29.7148 33.9921Z" fill="#6B7B3E"/>
<path d="M29.7142 33.9921C30.3114 34.8951 30.5675 35.7514 30.5675 35.7514L32.3077 34.9051L29.7142 33.9921Z" fill="#4B5B19"/>
<path d="M27.4512 42.4035C27.4512 42.4035 28.732 41.9601 29.0304 41.7329L29.3297 41.505L30.1878 42.6744C30.1878 42.6744 29.0446 43.1215 29.0278 43.097C29.0111 43.0724 27.4512 42.4035 27.4512 42.4035Z" fill="#6B7B3E"/>
<path d="M27.4512 42.4035C28.2454 43.1378 28.6978 43.9099 28.6978 43.9099L30.1878 42.6744L27.4512 42.4035Z" fill="#4B5B19"/>
<path d="M27.1327 44.6839C27.1327 44.6839 28.2763 43.9574 28.5145 43.6661L28.7527 43.3749L29.8578 44.3145C29.8578 44.3145 28.8488 45.0138 28.8259 44.9933C28.803 44.9729 27.132 44.6828 27.132 44.6828L27.1327 44.6839Z" fill="#6B7B3E"/>
<path d="M27.1328 44.6838C28.0753 45.2151 28.6943 45.8617 28.6943 45.8617L29.8586 44.3154L27.1338 44.6831L27.1328 44.6838Z" fill="#4B5B19"/>
<path d="M27.3933 47.3312C27.3933 47.3312 28.3168 46.3391 28.4727 45.9974L28.6302 45.656L29.9369 46.2857C29.9369 46.2857 29.1373 47.2175 29.1106 47.2027C29.083 47.1885 27.3933 47.3312 27.3933 47.3312Z" fill="#6B7B3E"/>
<path d="M27.3926 47.3312C28.4388 47.6073 29.2005 48.0757 29.2005 48.0757L29.9362 46.2858L27.3926 47.3312Z" fill="#4B5B19"/>
<path d="M27.9334 48.877C27.9334 48.877 28.9904 48.0279 29.1947 47.7133L29.3989 47.3986L30.6005 48.211C30.6005 48.211 29.6747 49.0171 29.6505 48.9991C29.6262 48.9812 27.9324 48.8777 27.9324 48.8777L27.9334 48.877Z" fill="#6B7B3E"/>
<path d="M27.9327 48.877C28.9285 49.3014 29.6138 49.8759 29.6138 49.8759L30.5998 48.211L27.9316 48.8777L27.9327 48.877Z" fill="#4B5B19"/>
<path d="M28.5014 51.2029C28.5014 51.2029 29.3333 50.1335 29.4595 49.7791L29.5856 49.4246L30.943 49.9373C30.943 49.9373 30.229 50.9353 30.2 50.9235C30.172 50.9111 28.5007 51.2019 28.5007 51.2019L28.5014 51.2029Z" fill="#6B7B3E"/>
<path d="M28.501 51.2029C29.5677 51.3855 30.3672 51.7861 30.3672 51.7861L30.9424 49.939L28.5 51.2036L28.501 51.2029Z" fill="#4B5B19"/>
<path d="M29.3805 53.4179C29.3805 53.4179 29.9156 52.1727 29.9483 51.7978L29.981 51.4229L31.4236 51.576C31.4236 51.576 30.9848 52.7226 30.9545 52.7178C30.9242 52.7129 29.3808 53.4162 29.3808 53.4162L29.3805 53.4179Z" fill="#6B7B3E"/>
<path d="M29.3813 53.4179C30.46 53.3253 31.3344 53.5099 31.3344 53.5099L31.4234 51.5768L29.3806 53.4169L29.3813 53.4179Z" fill="#4B5B19"/>
<path d="M30.1855 55.112C30.1855 55.112 30.954 53.9958 31.0598 53.6357L31.1656 53.2756L32.5505 53.7095C32.5505 53.7095 31.895 54.7472 31.8656 54.7372C31.8363 54.7271 30.1851 55.1137 30.1851 55.1137L30.1855 55.112Z" fill="#6B7B3E"/>
<path d="M30.1855 55.112C31.2612 55.233 32.0822 55.5859 32.0822 55.5859L32.5498 53.7085L30.1855 55.112Z" fill="#4B5B19"/>
<path d="M31.2803 57.1382C31.2803 57.1382 31.7716 55.8748 31.7909 55.5001L31.8102 55.1254L33.2571 55.2275C33.2571 55.2275 32.8584 56.3888 32.8287 56.385C32.7981 56.3818 31.2803 57.1382 31.2803 57.1382Z" fill="#6B7B3E"/>
<path d="M31.2801 57.1381C32.3542 57.0081 33.2352 57.1627 33.2352 57.1627L33.2568 55.2275L31.2801 57.1381Z" fill="#4B5B19"/>
<path d="M33.06 59.1152C33.06 59.1152 33.2155 57.7686 33.1389 57.4006L33.0623 57.0327L34.489 56.766C34.489 56.766 34.397 57.9899 34.3668 57.994C34.3366 57.9981 33.0593 59.1142 33.0593 59.1142L33.06 59.1152Z" fill="#6B7B3E"/>
<path d="M33.0601 59.1152C34.0673 58.7172 34.9576 58.6433 34.9576 58.6433L34.4891 56.766L33.0601 59.1152Z" fill="#4B5B19"/>
<path d="M34.411 60.04C34.411 60.04 34.7594 58.7299 34.7367 58.3552L34.7151 57.9799L36.1656 57.9221C36.1656 57.9221 35.8982 59.1199 35.867 59.1202C35.8367 59.1198 34.411 60.04 34.411 60.04Z" fill="#6B7B3E"/>
<path d="M34.4105 60.04C35.4642 59.7918 36.3559 59.8476 36.3559 59.8476L36.1634 57.9218L34.4098 60.039L34.4105 60.04Z" fill="#4B5B19"/>
<path d="M36.2447 61.5783C36.2447 61.5783 36.282 60.2235 36.1736 59.8638L36.0651 59.5041L37.4627 59.1132C37.4627 59.1132 37.478 60.3406 37.4489 60.3484C37.419 60.3552 36.2454 61.5793 36.2454 61.5793L36.2447 61.5783Z" fill="#6B7B3E"/>
<path d="M36.244 61.5783C37.2115 61.0933 38.0925 60.9418 38.0925 60.9418L37.4614 59.1122L36.244 61.5783Z" fill="#4B5B19"/>
<path d="M56.8813 35.9046C56.8813 35.9046 55.9262 36.8658 55.7579 37.2025L55.5907 37.5384L54.3056 36.8655C54.3056 36.8655 55.1357 35.9609 55.1613 35.9765C55.188 35.9913 56.8813 35.9046 56.8813 35.9046Z" fill="#6B7B3E"/>
<path d="M56.8817 35.9046C55.8444 35.5954 55.0994 35.1007 55.0994 35.1007L54.306 36.8654L56.8827 35.9039L56.8817 35.9046Z" fill="#4B5B19"/>
<path d="M56.0102 33.5814C56.0102 33.5814 55.3752 34.7791 55.3128 35.1502L55.2498 35.5202L53.8249 35.25C53.8249 35.25 54.3553 34.1431 54.3852 34.1497C54.4152 34.1562 56.0102 33.5814 56.0102 33.5814Z" fill="#6B7B3E"/>
<path d="M56.0094 33.5814C54.9268 33.5868 54.0695 33.3305 54.0695 33.3305L53.8225 35.2497L56.0077 33.5811L56.0094 33.5814Z" fill="#4B5B19"/>
<path d="M54.9368 31.553C54.9368 31.553 54.5453 32.8504 54.5545 33.2252L54.5645 33.601L53.1135 33.6096C53.1135 33.6096 53.4219 32.4214 53.4511 32.4224C53.4814 32.4228 54.9361 31.5519 54.9361 31.5519L54.9368 31.553Z" fill="#6B7B3E"/>
<path d="M54.9364 31.553C53.8751 31.7658 52.9855 31.6801 52.9855 31.6801L53.1128 33.6114L54.9364 31.553Z" fill="#4B5B19"/>
<path d="M54.0726 33.3542C54.0726 33.3542 53.6811 34.6516 53.6893 35.0271L53.6992 35.403L52.2483 35.4116C52.2483 35.4116 52.5566 34.2233 52.5859 34.2244C52.6161 34.2248 54.0709 33.3539 54.0709 33.3539L54.0726 33.3542Z" fill="#6B7B3E"/>
<path d="M54.0731 33.3542C53.0118 33.567 52.1222 33.4813 52.1222 33.4813L52.2495 35.4126L54.0731 33.3542Z" fill="#4B5B19"/>
<path d="M54.2503 35.1436C54.2503 35.1436 53.8588 36.441 53.867 36.8165L53.877 37.1923L52.426 37.2009C52.426 37.2009 52.7343 36.0127 52.7636 36.0138C52.7939 36.0142 54.2486 35.1433 54.2486 35.1433L54.2503 35.1436Z" fill="#6B7B3E"/>
<path d="M54.2508 35.1436C53.1895 35.3564 52.2999 35.2707 52.2999 35.2707L52.4272 37.202L54.2508 35.1436Z" fill="#4B5B19"/>
<path d="M54.5784 36.7094C54.5784 36.7094 54.1869 38.0068 54.1951 38.3823L54.2051 38.7581L52.7541 38.7667C52.7541 38.7667 53.0625 37.5785 53.0927 37.5789C53.123 37.5793 54.5777 36.7083 54.5777 36.7083L54.5784 36.7094Z" fill="#6B7B3E"/>
<path d="M54.579 36.7093C53.5176 36.9222 52.6281 36.8365 52.6281 36.8365L52.7553 38.7677L54.579 36.7093Z" fill="#4B5B19"/>
<path d="M53.2952 31.5103C53.2952 31.5103 52.9037 32.8077 52.912 33.1832L52.9219 33.559L51.4709 33.5676C51.4709 33.5676 51.7793 32.3794 51.8096 32.3798C51.8398 32.3801 53.2945 31.5092 53.2945 31.5092L53.2952 31.5103Z" fill="#6B7B3E"/>
<path d="M53.2958 31.5102C52.2344 31.7231 51.3449 31.6373 51.3449 31.6373L51.4721 33.5686L53.2958 31.5102Z" fill="#4B5B19"/>
<path d="M52.1488 29.9578C52.1488 29.9578 51.7572 31.2553 51.7654 31.6308L51.7754 32.0066L50.3244 32.0152C50.3244 32.0152 50.6328 30.827 50.663 30.8273C50.6933 30.8277 52.1481 29.9568 52.1481 29.9568L52.1488 29.9578Z" fill="#6B7B3E"/>
<path d="M52.1493 29.9578C51.088 30.1706 50.1984 30.0849 50.1984 30.0849L50.3257 32.0162L52.1493 29.9578Z" fill="#4B5B19"/>
<path d="M53.947 29.9595C53.947 29.9595 53.3072 31.1545 53.2431 31.5252L53.1784 31.8949L51.7538 31.6185C51.7538 31.6185 52.2889 30.5143 52.3189 30.5208C52.3489 30.5274 53.947 29.9595 53.947 29.9595Z" fill="#6B7B3E"/>
<path d="M53.9465 29.9595C52.8638 29.9603 52.0082 29.6999 52.0082 29.6999L51.7533 31.6184L53.9465 29.9595Z" fill="#4B5B19"/>
<path d="M52.6331 28.0699C52.6331 28.0699 52.2864 29.3804 52.3091 29.755L52.3317 30.1297L50.8817 30.1902C50.8817 30.1902 51.1472 28.9921 51.1785 28.9918C51.2088 28.9922 52.6331 28.0699 52.6331 28.0699Z" fill="#6B7B3E"/>
<path d="M52.6333 28.07C51.581 28.3202 50.6882 28.2652 50.6882 28.2652L50.8836 30.1906L52.6333 28.07Z" fill="#4B5B19"/>
<path d="M50.6407 26.3038C50.6407 26.3038 50.6371 27.6596 50.7541 28.0165L50.8712 28.3733L49.4832 28.7982C49.4832 28.7982 49.4372 27.5722 49.4674 27.5636C49.4966 27.5557 50.6407 26.3038 50.6407 26.3038Z" fill="#6B7B3E"/>
<path d="M50.6409 26.3038C49.6851 26.8124 48.808 26.9852 48.808 26.9852L49.4834 28.7982L50.6409 26.3038Z" fill="#4B5B19"/>
<path d="M49.1965 25.5361C49.1965 25.5361 48.9967 26.877 49.0612 27.2471L49.1258 27.6172L47.691 27.8369C47.691 27.8369 47.8233 26.617 47.8536 26.6129C47.8838 26.6088 49.1965 25.5361 49.1965 25.5361Z" fill="#6B7B3E"/>
<path d="M49.1965 25.5361C48.1777 25.9015 47.2843 25.9445 47.2843 25.9445L47.6911 27.8369L49.1965 25.5361Z" fill="#4B5B19"/>
<path d="M47.0975 24.4647C47.0975 24.4647 47.2127 25.8145 47.3603 26.161L47.5082 26.5059L46.1634 27.0514C46.1634 27.0514 46.0106 25.8337 46.0393 25.8231C46.0681 25.8125 47.0975 24.4647 47.0975 24.4647Z" fill="#6B7B3E"/>
<path d="M47.0994 24.4647C46.1921 25.0557 45.3337 25.3043 45.3337 25.3043L46.1663 27.0507L47.1004 24.464L47.0994 24.4647Z" fill="#4B5B19"/>
<path d="M57.7529 52.7702C57.7529 52.7702 56.4066 52.9281 56.066 53.0866L55.7254 53.2451L55.1381 51.9182C55.1381 51.9182 56.3506 51.727 56.3623 51.7551C56.3739 51.7831 57.7529 52.7702 57.7529 52.7702Z" fill="#6B7B3E"/>
<path d="M57.7535 52.7702C57.1348 51.8818 56.8588 51.0317 56.8588 51.0317L55.1387 51.9183L57.7535 52.7702Z" fill="#4B5B19"/>
<path d="M58.3695 50.3411C58.3695 50.3411 57.0955 50.8053 56.8013 51.0387L56.5065 51.2711L55.6289 50.1149C55.6289 50.1149 56.764 49.6493 56.7818 49.6732C56.7993 49.6988 58.3699 50.3393 58.3699 50.3393L58.3695 50.3411Z" fill="#6B7B3E"/>
<path d="M58.3705 50.3411C57.564 49.6196 57.0993 48.8559 57.0993 48.8559L55.6305 50.116L58.3705 50.3411Z" fill="#4B5B19"/>
<path d="M58.7469 47.8301C58.7469 47.8301 57.6324 48.6012 57.406 48.901L57.1796 49.2008L56.0384 48.3052C56.0384 48.3052 57.0192 47.5666 57.0421 47.587C57.066 47.6068 58.7469 47.8301 58.7469 47.8301Z" fill="#6B7B3E"/>
<path d="M58.7479 47.8301C57.7848 47.3368 57.1416 46.7142 57.1416 46.7142L56.0394 48.3052L58.7479 47.8301Z" fill="#4B5B19"/>
<path d="M58.8454 45.8583C58.8454 45.8583 57.6013 46.3952 57.32 46.6453L57.0388 46.8954L56.0957 45.7929C56.0957 45.7929 57.2023 45.2611 57.2208 45.2861C57.2396 45.3093 58.844 45.8607 58.844 45.8607L58.8454 45.8583Z" fill="#6B7B3E"/>
<path d="M58.8463 45.8583C57.9994 45.1855 57.4903 44.449 57.4903 44.449L56.097 45.7912L58.8456 45.8573L58.8463 45.8583Z" fill="#4B5B19"/>
<path d="M57.2448 45.3976C57.2448 45.3976 56.0006 45.9345 55.7194 46.1846L55.4392 46.434L54.4961 45.3315C54.4961 45.3315 55.6027 44.7997 55.6212 44.8247C55.64 44.8479 57.2444 45.3993 57.2444 45.3993L57.2448 45.3976Z" fill="#6B7B3E"/>
<path d="M57.2448 45.3976C56.3971 44.7237 55.8887 43.9883 55.8887 43.9883L54.4954 45.3305L57.2448 45.3976Z" fill="#4B5B19"/>
<path d="M55.9235 43.9852C55.9235 43.9852 54.6794 44.5221 54.3981 44.7722L54.1169 45.0223L53.1738 43.9198C53.1738 43.9198 54.2805 43.388 54.2989 43.413C54.3177 43.4362 55.9222 43.9876 55.9222 43.9876L55.9235 43.9852Z" fill="#6B7B3E"/>
<path d="M55.9245 43.9852C55.0775 43.3124 54.5684 42.5759 54.5684 42.5759L53.1751 43.9181L55.9238 43.9842L55.9245 43.9852Z" fill="#4B5B19"/>
<path d="M57.695 47.1664C57.695 47.1664 56.4508 47.7034 56.1696 47.9535L55.8883 48.2035L54.9453 47.101C54.9453 47.101 56.0519 46.5693 56.0704 46.5942C56.0889 46.6191 57.6936 47.1688 57.6936 47.1688L57.695 47.1664Z" fill="#6B7B3E"/>
<path d="M57.6949 47.1664C56.8479 46.4936 56.3398 45.7564 56.3398 45.7564L54.9466 47.0986L57.6952 47.1647L57.6949 47.1664Z" fill="#4B5B19"/>
<path d="M57.1569 49.3186C57.1569 49.3186 55.9127 49.8555 55.6315 50.1056L55.3513 50.355L54.4082 49.2525C54.4082 49.2525 55.5148 48.7208 55.5333 48.7457C55.5521 48.7689 57.1566 49.3204 57.1566 49.3204L57.1569 49.3186Z" fill="#6B7B3E"/>
<path d="M57.1578 49.3186C56.3102 48.6447 55.8027 47.9086 55.8027 47.9086L54.4095 49.2508L57.1588 49.3179L57.1578 49.3186Z" fill="#4B5B19"/>
<path d="M56.8552 51.313C56.8552 51.313 55.611 51.8499 55.3298 52.1L55.0485 52.3501L54.1055 51.2476C54.1055 51.2476 55.2121 50.7158 55.2306 50.7407C55.2494 50.7639 56.8538 51.3154 56.8538 51.3154L56.8552 51.313Z" fill="#6B7B3E"/>
<path d="M56.8551 51.313C56.0081 50.6401 55.5 49.903 55.5 49.903L54.1067 51.2451L56.8554 51.3113L56.8551 51.313Z" fill="#4B5B19"/>
<path d="M58.6649 43.649C58.6649 43.649 57.5779 44.4584 57.3626 44.7657L57.1472 45.0729L55.9752 44.2179C55.9752 44.2179 56.9295 43.4448 56.9534 43.4645C56.9766 43.4832 58.6659 43.6483 58.6659 43.6483L58.6649 43.649Z" fill="#6B7B3E"/>
<path d="M58.6644 43.649C57.6851 43.1893 57.0205 42.5903 57.0205 42.5903L55.9747 44.2179L58.6654 43.6483L58.6644 43.649Z" fill="#4B5B19"/>
<path d="M58.5414 41.5829C58.5414 41.5829 57.6945 42.6414 57.5636 42.9932L57.4326 43.3449L56.0822 42.814C56.0822 42.814 56.8104 41.8258 56.8384 41.8382C56.8664 41.8507 58.5414 41.5829 58.5414 41.5829Z" fill="#6B7B3E"/>
<path d="M58.5414 41.5829C57.4774 41.3865 56.6836 40.9745 56.6836 40.9745L56.0839 42.8143L58.5432 41.5832L58.5414 41.5829Z" fill="#4B5B19"/>
<path d="M57.9768 40.0187C57.9768 40.0187 56.9865 40.9438 56.8055 41.2727L56.6251 41.6026L55.366 40.8819C55.366 40.8819 56.2285 40.0094 56.2548 40.026C56.2804 40.0415 57.9768 40.0187 57.9768 40.0187Z" fill="#6B7B3E"/>
<path d="M57.9768 40.0188C56.9515 39.6699 56.2258 39.1486 56.2258 39.1486L55.3661 40.882L57.9768 40.0188Z" fill="#4B5B19"/>
<path d="M57.2421 37.7417C57.2421 37.7417 56.4909 38.8701 56.3927 39.2325L56.2928 39.5946L54.9016 39.1844C54.9016 39.1844 55.5395 38.1363 55.5681 38.1453C55.5974 38.1554 57.2421 37.7417 57.2421 37.7417Z" fill="#6B7B3E"/>
<path d="M57.2419 37.7417C56.1647 37.6383 55.3376 37.2985 55.3376 37.2985L54.9014 39.1845L57.2419 37.7417Z" fill="#4B5B19"/>
<path d="M56.2599 54.9993C56.2599 54.9993 54.922 54.784 54.5511 54.843L54.1803 54.9021L53.9771 53.4651C53.9771 53.4651 55.1961 53.6115 55.1984 53.6414C55.2015 53.6723 56.2603 54.9976 56.2603 54.9976L56.2599 54.9993Z" fill="#6B7B3E"/>
<path d="M56.2597 54.9993C55.9066 53.9766 55.8736 53.0823 55.8736 53.0823L53.9766 53.4669L56.2597 54.9993Z" fill="#4B5B19"/>
<path d="M56.2164 38.0997C56.2164 38.0997 55.1653 38.9552 54.9625 39.2719L54.7596 39.5886L53.5523 38.7832C53.5523 38.7832 54.4728 37.9716 54.4981 37.9889C54.5233 38.0062 56.2164 38.0997 56.2164 38.0997Z" fill="#6B7B3E"/>
<path d="M56.2175 38.0997C55.2186 37.6818 54.5299 37.1113 54.5299 37.1113L53.5544 38.7825L56.2175 38.0997Z" fill="#4B5B19"/>
<path d="M55.6375 35.7773C55.6375 35.7773 54.8117 36.8514 54.688 37.2073L54.5636 37.5621L53.2028 37.0577C53.2028 37.0577 53.9106 36.055 53.9396 36.0667C53.9679 36.0774 55.6364 35.778 55.6364 35.778L55.6375 35.7773Z" fill="#6B7B3E"/>
<path d="M55.6378 35.7774C54.5699 35.6016 53.7677 35.2059 53.7677 35.2059L53.2042 37.057L55.6378 35.7774Z" fill="#4B5B19"/>
<path d="M55.2963 54.9632C55.2963 54.9632 53.9407 54.9774 53.5856 55.0992L53.2305 55.2211L52.7875 53.8395C52.7875 53.8395 54.013 53.7774 54.0219 53.8058C54.0297 53.835 55.2974 54.9625 55.2974 54.9625L55.2963 54.9632Z" fill="#6B7B3E"/>
<path d="M55.2967 54.9632C54.7751 54.0146 54.5913 53.1391 54.5913 53.1391L52.7871 53.8384L55.297 54.9614L55.2967 54.9632Z" fill="#4B5B19"/>
<path d="M56.1691 52.6133C56.1691 52.6133 54.8541 52.9405 54.5359 53.1407L54.2177 53.341L53.4679 52.0993C53.4679 52.0993 54.6459 51.756 54.6606 51.782C54.6753 51.808 56.1691 52.6133 56.1691 52.6133Z" fill="#6B7B3E"/>
<path d="M56.1697 52.6134C55.4428 51.8107 55.0626 51.0014 55.0626 51.0014L53.4685 52.0993L56.1697 52.6134Z" fill="#4B5B19"/>
<path d="M56.8089 50.1568C56.8089 50.1568 55.6185 50.8056 55.3622 51.0792L55.105 51.3534L54.0645 50.3413C54.0645 50.3413 55.1175 49.711 55.1383 49.7328C55.1592 49.7546 56.8082 50.1557 56.8082 50.1557L56.8089 50.1568Z" fill="#6B7B3E"/>
<path d="M56.8095 50.1568C55.9046 49.5639 55.3306 48.8776 55.3306 48.8776L54.0658 50.3423L56.8095 50.1568Z" fill="#4B5B19"/>
<path d="M57.1503 48.4258C57.1503 48.4258 55.8567 48.8284 55.5503 49.046L55.2447 49.2647L54.4238 48.0685C54.4238 48.0685 55.5798 47.6576 55.5973 47.6833C55.6147 47.7089 57.1503 48.4258 57.1503 48.4258Z" fill="#6B7B3E"/>
<path d="M57.1504 48.4258C56.3796 47.6665 55.9522 46.8804 55.9522 46.8804L54.4239 48.0685L57.1504 48.4258Z" fill="#4B5B19"/>
<path d="M57.2059 46.2093C57.2059 46.2093 56.0397 46.9002 55.7925 47.1827L55.5459 47.4661L54.4707 46.4911C54.4707 46.4911 55.5013 45.8236 55.5232 45.8447C55.5451 45.8658 57.2069 46.2086 57.2069 46.2086L57.2059 46.2093Z" fill="#6B7B3E"/>
<path d="M57.2052 46.2093C56.2799 45.6483 55.6824 44.9826 55.6824 44.9826L54.47 46.4911L57.2052 46.2093Z" fill="#4B5B19"/>
<path d="M57.2644 43.9219C57.2644 43.9219 56.31 44.8841 56.1435 45.2211L55.9762 45.5571L54.6898 44.8865C54.6898 44.8865 55.5175 43.9806 55.5441 43.9955C55.5708 44.0104 57.2644 43.9219 57.2644 43.9219Z" fill="#6B7B3E"/>
<path d="M57.2649 43.9219C56.2276 43.6127 55.4811 43.1205 55.4811 43.1205L54.6895 44.8855L57.2649 43.9219Z" fill="#4B5B19"/>
<path d="M56.8713 42.3077C56.8713 42.3077 55.7878 43.1223 55.5738 43.4315L55.3592 43.7397L54.1834 42.8903C54.1834 42.8903 55.1339 42.1138 55.1581 42.1318C55.1824 42.1498 56.8713 42.3077 56.8713 42.3077Z" fill="#6B7B3E"/>
<path d="M56.8705 42.3076C55.8885 41.8528 55.2216 41.2569 55.2216 41.2569L54.1827 42.8903L56.8695 42.3083L56.8705 42.3076Z" fill="#4B5B19"/>
<path d="M56.3788 39.9645C56.3788 39.9645 55.5135 41.007 55.3757 41.3575L55.2388 41.7073L53.8985 41.1515C53.8985 41.1515 54.6447 40.1765 54.6717 40.1897C54.6996 40.2021 56.3795 39.9656 56.3795 39.9656L56.3788 39.9645Z" fill="#6B7B3E"/>
<path d="M56.3783 39.9645C55.3171 39.7481 54.5311 39.3233 54.5311 39.3233L53.898 41.1514L56.3783 39.9645Z" fill="#4B5B19"/>
<path d="M53.5783 57.0216C53.5783 57.0216 52.2706 56.6656 51.8955 56.6855L51.5205 56.7054L51.4706 55.2555C51.4706 55.2555 52.6671 55.5297 52.6667 55.56C52.6664 55.5903 53.5776 57.0205 53.5776 57.0205L53.5783 57.0216Z" fill="#6B7B3E"/>
<path d="M53.5784 57.0216C53.3357 55.9671 53.397 55.0747 53.397 55.0747L51.4707 55.2556L53.5784 57.0216Z" fill="#4B5B19"/>
<path d="M53.6145 35.0496C53.6145 35.0496 52.6677 36.0186 52.5018 36.3566L52.337 36.6939L51.0462 36.0323C51.0462 36.0323 51.868 35.1199 51.8947 35.1348C51.9213 35.1497 53.6138 35.0485 53.6138 35.0485L53.6145 35.0496Z" fill="#6B7B3E"/>
<path d="M53.6144 35.0496C52.5747 34.748 51.8246 34.2612 51.8246 34.2612L51.0461 36.0323L53.6144 35.0496Z" fill="#4B5B19"/>
<path d="M52.7711 32.8087C52.7711 32.8087 52.0743 33.9705 51.9912 34.3377L51.9092 34.7041L50.5005 34.3584C50.5005 34.3584 51.0903 33.2815 51.1189 33.2905C51.1486 33.2988 52.7718 32.8097 52.7718 32.8097L52.7711 32.8087Z" fill="#6B7B3E"/>
<path d="M52.7719 32.8086C51.6914 32.7555 50.8488 32.4547 50.8488 32.4547L50.4995 34.358L52.7726 32.8097L52.7719 32.8086Z" fill="#4B5B19"/>
<path d="M54.6286 51.9082C54.6286 51.9082 53.2838 52.0771 52.9442 52.2394L52.6057 52.401L52.0068 51.079C52.0068 51.079 53.2178 50.8768 53.2294 50.9049C53.2411 50.9329 54.6286 51.9082 54.6286 51.9082Z" fill="#6B7B3E"/>
<path d="M54.6284 51.9082C54.0015 51.0254 53.7189 50.1767 53.7189 50.1767L52.0059 51.078L54.6277 51.9072L54.6284 51.9082Z" fill="#4B5B19"/>
<path d="M55.2249 49.4752C55.2249 49.4752 53.955 49.9501 53.6623 50.1855L53.3695 50.4209L52.4824 49.2728C52.4824 49.2728 53.6133 48.7965 53.6318 48.8214C53.6493 48.847 55.2249 49.4752 55.2249 49.4752Z" fill="#6B7B3E"/>
<path d="M55.2258 49.4752C54.4125 48.7614 53.941 48.0008 53.941 48.0008L52.4834 49.2728L55.2258 49.4752Z" fill="#4B5B19"/>
<path d="M55.581 46.9602C55.581 46.9602 54.4727 47.7406 54.2494 48.0427L54.0261 48.3449L52.8778 47.4587C52.8778 47.4587 53.852 46.7126 53.8752 46.7313C53.8991 46.751 55.5817 46.9612 55.5817 46.9612L55.581 46.9602Z" fill="#6B7B3E"/>
<path d="M55.5817 46.9602C54.6145 46.4742 53.9666 45.8578 53.9666 45.8578L52.8778 47.4577L55.5817 46.9602Z" fill="#4B5B19"/>
<path d="M55.7228 45.2027C55.7228 45.2027 54.4829 45.7503 54.2041 46.0017L53.9252 46.2531L52.9727 45.1586C52.9727 45.1586 54.0747 44.618 54.0942 44.6422C54.113 44.6654 55.7228 45.2027 55.7228 45.2027Z" fill="#6B7B3E"/>
<path d="M55.7227 45.2027C54.87 44.5368 54.3554 43.8055 54.3554 43.8055L52.9732 45.1596L55.7227 45.2027Z" fill="#4B5B19"/>
<path d="M55.5199 42.9942C55.5199 42.9942 54.4399 43.8139 54.227 44.1225L54.0137 44.4328L52.8346 43.5871C52.8346 43.5871 53.7822 42.8066 53.8054 42.8252C53.8287 42.8439 55.5189 42.9949 55.5189 42.9949L55.5199 42.9942Z" fill="#6B7B3E"/>
<path d="M55.5207 42.9942C54.537 42.5435 53.8669 41.9497 53.8669 41.9497L52.8353 43.5871L55.5207 42.9942Z" fill="#4B5B19"/>
<path d="M55.3219 40.7136C55.3219 40.7136 54.4844 41.7792 54.3559 42.1323L54.2273 42.4854L52.8729 41.9662C52.8729 41.9662 53.5925 40.9719 53.6204 40.9844C53.6484 40.9968 55.3209 40.7143 55.3209 40.7143L55.3219 40.7136Z" fill="#6B7B3E"/>
<path d="M55.3221 40.7136C54.2565 40.5258 53.4586 40.121 53.4586 40.121L52.8741 41.9655L55.3221 40.7136Z" fill="#4B5B19"/>
<path d="M54.746 39.1551C54.746 39.1551 53.7631 40.0887 53.5851 40.42L53.4072 40.7513L52.1416 40.0409C52.1416 40.0409 52.9975 39.1609 53.0231 39.1764C53.0487 39.192 54.745 39.1558 54.745 39.1558L54.746 39.1551Z" fill="#6B7B3E"/>
<path d="M54.7473 39.1551C53.7204 38.8149 52.9892 38.2987 52.9892 38.2987L52.144 40.0403L54.7473 39.1551Z" fill="#4B5B19"/>
<path d="M53.9894 36.8841C53.9894 36.8841 53.2485 38.0189 53.1521 38.3817L53.0556 38.7445L51.6604 38.346C51.6604 38.346 52.2896 37.2918 52.319 37.3018C52.3476 37.3108 53.9894 36.8841 53.9894 36.8841Z" fill="#6B7B3E"/>
<path d="M53.9886 36.8841C52.9105 36.7903 52.0803 36.4571 52.0803 36.4571L51.6596 38.346L53.9886 36.8841Z" fill="#4B5B19"/>
<path d="M53.1542 54.1499C53.1542 54.1499 51.815 53.9459 51.4435 54.0084L51.0737 54.0713L50.8585 52.6365C50.8585 52.6365 52.0784 52.7732 52.0818 52.8024C52.0859 52.8326 53.1542 54.1499 53.1542 54.1499Z" fill="#6B7B3E"/>
<path d="M53.1542 54.1499C52.7925 53.13 52.7512 52.2368 52.7512 52.2368L50.8574 52.6371L53.1531 54.1506L53.1542 54.1499Z" fill="#4B5B19"/>
<path d="M52.4622 34.3161C52.4622 34.3161 51.5153 35.2851 51.3495 35.6231L51.1847 35.9604L49.8938 35.2989C49.8938 35.2989 50.7157 34.3865 50.7423 34.4014C50.7689 34.4162 52.4615 34.3151 52.4615 34.3151L52.4622 34.3161Z" fill="#6B7B3E"/>
<path d="M52.462 34.3161C51.4224 34.0145 50.6723 33.5278 50.6723 33.5278L49.8937 35.2989L52.462 34.3161Z" fill="#4B5B19"/>
<path d="M51.6208 32.0763C51.6208 32.0763 50.9239 33.2381 50.8408 33.6052L50.7589 33.9716L49.3501 33.6259C49.3501 33.6259 49.9399 32.5491 49.9685 32.5581C49.9982 32.5664 51.6215 32.0773 51.6215 32.0773L51.6208 32.0763Z" fill="#6B7B3E"/>
<path d="M51.6215 32.0762C50.541 32.023 49.6985 31.7222 49.6985 31.7222L49.3491 33.6256L51.6222 32.0773L51.6215 32.0762Z" fill="#4B5B19"/>
<path d="M53.4762 51.1741C53.4762 51.1741 52.1314 51.3429 51.7919 51.5052L51.4533 51.6668L50.8544 50.3449C50.8544 50.3449 52.0655 50.1426 52.0771 50.1707C52.0887 50.1988 53.4762 51.1741 53.4762 51.1741Z" fill="#6B7B3E"/>
<path d="M53.476 51.174C52.8492 50.2912 52.5666 49.4425 52.5666 49.4425L50.8535 50.3438L53.4753 51.173L53.476 51.174Z" fill="#4B5B19"/>
<path d="M54.0726 48.741C54.0726 48.741 52.8027 49.2159 52.5099 49.4513L52.2172 49.6867L51.3301 48.5386C51.3301 48.5386 52.461 48.0623 52.4795 48.0872C52.4969 48.1128 54.0726 48.741 54.0726 48.741Z" fill="#6B7B3E"/>
<path d="M54.0735 48.741C53.2602 48.0272 52.7886 47.2666 52.7886 47.2666L51.331 48.5386L54.0735 48.741Z" fill="#4B5B19"/>
<path d="M54.4286 46.2267C54.4286 46.2267 53.3204 47.0071 53.0971 47.3093L52.8738 47.6114L51.7255 46.7252C51.7255 46.7252 52.6996 45.9791 52.7228 45.9978C52.7468 46.0175 54.4293 46.2277 54.4293 46.2277L54.4286 46.2267Z" fill="#6B7B3E"/>
<path d="M54.4293 46.2267C53.4621 45.7408 52.8142 45.1244 52.8142 45.1244L51.7255 46.7242L54.4293 46.2267Z" fill="#4B5B19"/>
<path d="M54.5705 44.4693C54.5705 44.4693 53.3306 45.0168 53.0518 45.2682L52.7729 45.5197L51.8203 44.4252C51.8203 44.4252 52.9224 43.8845 52.9419 43.9087C52.9607 43.9319 54.5705 44.4693 54.5705 44.4693Z" fill="#6B7B3E"/>
<path d="M54.5704 44.4692C53.7177 43.8033 53.2031 43.0721 53.2031 43.0721L51.8209 44.4262L54.5704 44.4692Z" fill="#4B5B19"/>
<path d="M54.3695 42.2611C54.3695 42.2611 53.2895 43.0808 53.0766 43.3894L52.8633 43.6997L51.6842 42.854C51.6842 42.854 52.6318 42.0734 52.6551 42.0921C52.6793 42.1101 54.3685 42.2618 54.3685 42.2618L54.3695 42.2611Z" fill="#6B7B3E"/>
<path d="M54.3703 42.2611C53.3866 41.8104 52.7165 41.2165 52.7165 41.2165L51.6849 42.854L54.3703 42.2611Z" fill="#4B5B19"/>
<path d="M53.3017 47.5301C53.3017 47.5301 52.1934 48.3105 51.9701 48.6127L51.7468 48.9148L50.5985 48.0286C50.5985 48.0286 51.5727 47.2825 51.5959 47.3012C51.6198 47.3209 53.3024 47.5311 53.3024 47.5311L53.3017 47.5301Z" fill="#6B7B3E"/>
<path d="M53.3024 47.5301C52.3352 47.0442 51.6873 46.4278 51.6873 46.4278L50.5985 48.0276L53.3024 47.5301Z" fill="#4B5B19"/>
<path d="M51.8153 49.1026C51.8153 49.1026 50.7071 49.883 50.4838 50.1851L50.2605 50.4873L49.1122 49.6011C49.1122 49.6011 50.0863 48.855 50.1096 48.8737C50.1335 48.8934 51.816 49.1036 51.816 49.1036L51.8153 49.1026Z" fill="#6B7B3E"/>
<path d="M51.816 49.1026C50.8488 48.6166 50.2009 48.0002 50.2009 48.0002L49.1122 49.6001L51.816 49.1026Z" fill="#4B5B19"/>
<path d="M53.4435 45.7726C53.4435 45.7726 52.2036 46.3201 51.9248 46.5716L51.646 46.823L50.6934 45.7285C50.6934 45.7285 51.7954 45.1879 51.8149 45.2121C51.8337 45.2353 53.4435 45.7726 53.4435 45.7726Z" fill="#6B7B3E"/>
<path d="M53.4434 45.7726C52.5907 45.1066 52.0761 44.3754 52.0761 44.3754L50.6939 45.7295L53.4434 45.7726Z" fill="#4B5B19"/>
<path d="M53.2426 43.5652C53.2426 43.5652 52.1626 44.3849 51.9496 44.6935L51.7364 45.0037L50.5572 44.1581C50.5572 44.1581 51.5049 43.3775 51.5281 43.3962C51.5513 43.4149 53.2415 43.5659 53.2415 43.5659L53.2426 43.5652Z" fill="#6B7B3E"/>
<path d="M53.2433 43.5652C52.2596 43.1145 51.5896 42.5207 51.5896 42.5207L50.5573 44.1571L53.2426 43.5642L53.2433 43.5652Z" fill="#4B5B19"/>
<path d="M54.1683 39.9811C54.1683 39.9811 53.3308 41.0467 53.2023 41.3999L53.0737 41.753L51.7186 41.2327C51.7186 41.2327 52.4382 40.2385 52.4661 40.2509C52.4941 40.2634 54.1666 39.9808 54.1666 39.9808L54.1683 39.9811Z" fill="#6B7B3E"/>
<path d="M54.1698 39.9811C53.1041 39.7933 52.3063 39.3886 52.3063 39.3886L51.7218 41.2331L54.1698 39.9811Z" fill="#4B5B19"/>
<path d="M53.5946 38.4227C53.5946 38.4227 52.6116 39.3563 52.4347 39.6868L52.2568 40.0181L50.9912 39.3078C50.9912 39.3078 51.8471 38.4277 51.8727 38.4433C51.8983 38.4589 53.5946 38.4227 53.5946 38.4227Z" fill="#6B7B3E"/>
<path d="M53.595 38.4227C52.568 38.0824 51.8368 37.5663 51.8368 37.5663L50.9916 39.3078L53.595 38.4227Z" fill="#4B5B19"/>
<path d="M52.839 36.1517C52.839 36.1517 52.0981 37.2865 52.0017 37.6493L51.9052 38.012L50.5101 37.6136C50.5101 37.6136 51.1392 36.5593 51.1686 36.5694C51.1972 36.5784 52.839 36.1517 52.839 36.1517Z" fill="#6B7B3E"/>
<path d="M52.8382 36.1517C51.7601 36.0579 50.9299 35.7246 50.9299 35.7246L50.5092 37.6136L52.8382 36.1517Z" fill="#4B5B19"/>
<path d="M52.0038 53.4174C52.0038 53.4174 50.6646 53.2134 50.2931 53.2759L49.9233 53.3388L49.7081 51.904C49.7081 51.904 50.928 52.0407 50.9314 52.0699C50.9355 52.1002 52.0038 53.4174 52.0038 53.4174Z" fill="#6B7B3E"/>
<path d="M52.0047 53.4174C51.643 52.3975 51.6028 51.5037 51.6028 51.5037L49.709 51.904L52.0047 53.4174Z" fill="#4B5B19"/>
<path d="M40.9863 63.3466C40.9863 63.3466 40.268 62.1975 39.9798 61.9572L39.6906 61.7176L40.6396 60.6196C40.6396 60.6196 41.3306 61.6342 41.3106 61.6554C41.2895 61.6772 40.988 63.3469 40.988 63.3469L40.9863 63.3466Z" fill="#6B7B3E"/>
<path d="M40.9872 63.3466C41.5257 62.4081 42.1765 61.7953 42.1765 61.7953L40.6394 60.6203L40.9868 63.3483L40.9872 63.3466Z" fill="#4B5B19"/>
<path d="M43.357 63.4117C43.357 63.4117 42.3928 62.4586 42.0558 62.2921L41.7188 62.1256L42.3886 60.8381C42.3886 60.8381 43.2956 61.6651 43.2807 61.6917C43.2659 61.7184 43.357 63.4117 43.357 63.4117Z" fill="#6B7B3E"/>
<path d="M43.3579 63.4117C43.6653 62.3741 44.1569 61.6266 44.1569 61.6266L42.3905 60.8374L43.3589 63.411L43.3579 63.4117Z" fill="#4B5B19"/>
<path d="M45.5007 63.1069C45.5007 63.1069 44.3273 62.4283 43.9589 62.3522L43.5915 62.2754L43.9134 60.8604C43.9134 60.8604 45.0001 61.4314 44.9918 61.4611C44.9835 61.4908 45.5 63.1059 45.5 63.1059L45.5007 63.1069Z" fill="#6B7B3E"/>
<path d="M45.5017 63.1069C45.5363 62.0256 45.8236 61.1787 45.8236 61.1787L43.9141 60.8621L45.5007 63.1076L45.5017 63.1069Z" fill="#4B5B19"/>
<path d="M47.1822 62.9653C47.1822 62.9653 46.0007 62.3012 45.6317 62.2286L45.2626 62.1559L45.5683 60.7369C45.5683 60.7369 46.661 61.2948 46.6544 61.3248C46.6472 61.3538 47.1815 62.9642 47.1815 62.9642L47.1822 62.9653Z" fill="#6B7B3E"/>
<path d="M47.1816 62.9653C47.2038 61.8834 47.4812 61.0328 47.4812 61.0328L45.5684 60.7379L47.1816 62.9653Z" fill="#4B5B19"/>
<path d="M50.5785 61.1577C50.5785 61.1577 49.3818 60.5221 49.0111 60.458L48.6411 60.395L48.913 58.9704C48.913 58.9704 50.0186 59.5032 50.012 59.5332C50.0054 59.5631 50.5782 61.1595 50.5782 61.1595L50.5785 61.1577Z" fill="#6B7B3E"/>
<path d="M50.5792 61.1577C50.5756 60.0754 50.8336 59.2185 50.8336 59.2185L48.9141 58.9687L50.5792 61.1577Z" fill="#4B5B19"/>
<path d="M49.2093 62.2424C49.2093 62.2424 48.0127 61.6067 47.642 61.5426L47.2719 61.4796L47.5449 60.0544C47.5449 60.0544 48.6505 60.5871 48.6439 60.6171C48.6373 60.6471 49.21 62.2434 49.21 62.2434L49.2093 62.2424Z" fill="#6B7B3E"/>
<path d="M49.2101 62.2424C49.2065 61.1601 49.4645 60.3032 49.4645 60.3032L47.5449 60.0533L49.2101 62.2424Z" fill="#4B5B19"/>
<path d="M52.4179 59.6736C52.4179 59.6736 51.0993 59.361 50.7247 59.3926L50.3509 59.4252L50.2542 57.9772C50.2542 57.9772 51.4589 58.2128 51.4603 58.2434C51.4616 58.274 52.4186 59.6746 52.4186 59.6746L52.4179 59.6736Z" fill="#6B7B3E"/>
<path d="M52.4176 59.6736C52.1413 58.627 52.1734 57.7335 52.1734 57.7335L50.2539 57.9772L52.4176 59.6736Z" fill="#4B5B19"/>
<path d="M53.7636 58.143C53.7636 58.143 52.4244 57.939 52.0528 58.0015L51.6831 58.0644L51.4679 56.6296C51.4679 56.6296 52.6878 56.7663 52.6912 56.7955C52.6953 56.8257 53.7636 58.143 53.7636 58.143Z" fill="#6B7B3E"/>
<path d="M53.7645 58.143C53.4028 57.1231 53.3626 56.2292 53.3626 56.2292L51.4688 56.6296L53.7645 58.143Z" fill="#4B5B19"/>
<path d="M55.0436 56.7122C55.0436 56.7122 53.702 56.5158 53.3326 56.5814L52.9625 56.646L52.7391 55.2123C52.7391 55.2123 53.9596 55.3411 53.9637 55.3714C53.9678 55.4016 55.0446 56.7115 55.0446 56.7115L55.0436 56.7122Z" fill="#6B7B3E"/>
<path d="M55.0428 56.7122C54.6753 55.6948 54.6289 54.8007 54.6289 54.8007L52.7383 55.2123L55.0428 56.7122Z" fill="#4B5B19"/>
<path d="M38.4772 62.7289C38.4772 62.7289 38.1707 61.4088 37.9745 61.0878L37.7783 60.7668L39.0309 60.0352C39.0309 60.0352 39.357 61.2188 39.3293 61.2332C39.3026 61.2469 38.4755 62.7285 38.4755 62.7285L38.4772 62.7289Z" fill="#6B7B3E"/>
<path d="M38.4763 62.7289C39.2898 62.0157 40.1043 61.6454 40.1043 61.6454L39.031 60.0345L38.4766 62.7272L38.4763 62.7289Z" fill="#4B5B19"/>
<path d="M43.3672 22.3201L44.7181 22.6271L44.7339 22.0027L43.3672 22.3201Z" fill="#261C02"/>
<path d="M42.8523 19.333C42.8523 19.333 43.4816 19.6425 44.1215 19.6282C44.7622 19.6149 44.7087 19.3557 44.7087 19.3557L44.629 18.9194C44.629 18.9194 44.361 19.189 43.9629 19.2696C43.5637 19.351 42.8516 19.332 42.8516 19.332L42.8523 19.333Z" fill="#261C02"/>
<path d="M43.3425 21.5622C43.3425 21.5622 43.9719 21.8717 44.6118 21.8574C45.2524 21.8441 45.1989 21.585 45.1989 21.585L45.1192 21.1486C45.1192 21.1486 44.8513 21.4182 44.4531 21.4989C44.0539 21.5803 43.3418 21.5612 43.3418 21.5612L43.3425 21.5622Z" fill="#261C02"/>
<path d="M48.932 60.769C48.932 60.769 47.7353 60.1333 47.3646 60.0693L46.9946 60.0062L47.2665 58.5817C47.2665 58.5817 48.3721 59.1144 48.3655 59.1444C48.3589 59.1744 48.9317 60.7707 48.9317 60.7707L48.932 60.769Z" fill="#6B7B3E"/>
<path d="M48.9327 60.769C48.9291 59.6867 49.1871 58.8298 49.1871 58.8298L47.2676 58.58L48.9327 60.769Z" fill="#4B5B19"/>
<path d="M47.432 61.4608C47.432 61.4608 46.2353 60.8251 45.8646 60.7611L45.4946 60.6981L45.7665 59.2735C45.7665 59.2735 46.8721 59.8063 46.8655 59.8363C46.8589 59.8662 47.4317 61.4625 47.4317 61.4625L47.432 61.4608Z" fill="#6B7B3E"/>
<path d="M47.4327 61.4608C47.4292 60.3785 47.6872 59.5216 47.6872 59.5216L45.7676 59.2718L47.432 61.4598L47.4327 61.4608Z" fill="#4B5B19"/>
<path d="M45.6918 61.8011C45.6918 61.8011 44.4951 61.1654 44.1244 61.1014L43.7544 61.0383L44.0263 59.6138C44.0263 59.6138 45.1318 60.1465 45.1253 60.1765C45.1187 60.2065 45.6914 61.8028 45.6914 61.8028L45.6918 61.8011Z" fill="#6B7B3E"/>
<path d="M45.6925 61.8011C45.6889 60.7188 45.9469 59.8619 45.9469 59.8619L44.0273 59.6121L45.6925 61.8011Z" fill="#4B5B19"/>
<path d="M43.9945 62.0093C43.9945 62.0093 42.7978 61.3736 42.4271 61.3096L42.0571 61.2465L42.329 59.822C42.329 59.822 43.4346 60.3547 43.428 60.3847C43.4214 60.4147 43.9942 62.011 43.9942 62.011L43.9945 62.0093Z" fill="#6B7B3E"/>
<path d="M43.9952 62.0093C43.9916 60.9269 44.2496 60.0701 44.2496 60.0701L42.3301 59.8203L43.9952 62.0093Z" fill="#4B5B19"/>
<path d="M41.8504 62.0128C41.8504 62.0128 41.1543 60.8501 40.8699 60.6043L40.5854 60.3584L41.5548 59.2795C41.5548 59.2795 42.2265 60.3073 42.2054 60.3292C42.1843 60.3511 41.8494 62.0135 41.8494 62.0135L41.8504 62.0128Z" fill="#6B7B3E"/>
<path d="M41.8498 62.0129C42.406 61.0849 43.0696 60.4843 43.0696 60.4843L41.5553 59.2788L41.8498 62.0129Z" fill="#4B5B19"/>
<path d="M51.7986 51.458C51.7986 51.458 50.4652 51.6986 50.1347 51.8787L49.8053 52.0581L49.1366 50.7702C49.1366 50.7702 50.3346 50.5048 50.3483 50.5315C50.3609 50.5589 51.7993 51.459 51.7993 51.459L51.7986 51.458Z" fill="#6B7B3E"/>
<path d="M51.7987 51.458C51.1261 50.6093 50.7983 49.7779 50.7983 49.7779L49.1367 50.7702L51.7987 51.458Z" fill="#4B5B19"/>
<path d="M51.5983 47.0148C51.5983 47.0148 50.3936 47.6359 50.1311 47.9047L49.8679 48.1725L48.8516 47.1364C48.8516 47.1364 49.9196 46.5304 49.9394 46.5529C49.9603 46.5747 51.5977 47.0138 51.5977 47.0138L51.5983 47.0148Z" fill="#6B7B3E"/>
<path d="M51.5978 47.0148C50.7057 46.4011 50.1484 45.702 50.1484 45.702L48.8499 47.1371L51.5978 47.0148Z" fill="#4B5B19"/>
<path d="M51.6687 43.0863C51.6687 43.0863 50.4639 43.7074 50.2014 43.9763L49.9382 44.2441L48.9219 43.2079C48.9219 43.2079 49.9899 42.602 50.0097 42.6245C50.0306 42.6463 51.669 43.0846 51.669 43.0846L51.6687 43.0863Z" fill="#6B7B3E"/>
<path d="M51.6681 43.0863C50.776 42.4727 50.2187 41.7735 50.2187 41.7735L48.9203 43.2086L51.6681 43.0863Z" fill="#4B5B19"/>
<path d="M51.6648 40.5262C51.6648 40.5262 50.46 41.1473 50.1975 41.4161L49.9343 41.6839L48.918 40.6478C48.918 40.6478 49.986 40.0418 50.0059 40.0643C50.0267 40.0861 51.6641 40.5251 51.6641 40.5251L51.6648 40.5262Z" fill="#6B7B3E"/>
<path d="M51.6642 40.5262C50.7721 39.9125 50.2148 39.2134 50.2148 39.2134L48.9164 40.6485L51.6642 40.5262Z" fill="#4B5B19"/>
<path d="M52.1648 42.0603C52.1648 42.0603 50.96 42.6814 50.6975 42.9502L50.4343 43.218L49.418 42.1819C49.418 42.1819 50.486 41.5759 50.5058 41.5984C50.5257 41.6209 52.1641 42.0592 52.1641 42.0592L52.1648 42.0603Z" fill="#6B7B3E"/>
<path d="M52.1642 42.0602C51.2721 41.4466 50.7148 40.7475 50.7148 40.7475L49.4164 42.1826L52.1642 42.0602Z" fill="#4B5B19"/>
<path d="M51.7175 38.5539C51.7175 38.5539 50.5127 39.175 50.2502 39.4438L49.987 39.7116L48.9707 38.6755C48.9707 38.6755 50.0387 38.0695 50.0586 38.092C50.0794 38.1139 51.7168 38.5529 51.7168 38.5529L51.7175 38.5539Z" fill="#6B7B3E"/>
<path d="M51.7169 38.5539C50.8248 37.9403 50.2675 37.2411 50.2675 37.2411L48.9691 38.6762L51.7169 38.5539Z" fill="#4B5B19"/>
<path d="M51.5945 36.5734C51.5945 36.5734 50.3897 37.1945 50.1272 37.4633L49.864 37.7311L48.8477 36.695C48.8477 36.695 49.9157 36.089 49.9356 36.1115C49.9554 36.134 51.5938 36.5723 51.5938 36.5723L51.5945 36.5734Z" fill="#6B7B3E"/>
<path d="M51.5939 36.5733C50.7018 35.9597 50.1445 35.2606 50.1445 35.2606L48.846 36.6957L51.5939 36.5733Z" fill="#4B5B19"/>
<path d="M50.0506 53.1587C50.0506 53.1587 48.7171 53.3993 48.3867 53.5794L48.0573 53.7588L47.3886 52.4709C47.3886 52.4709 48.5866 52.2055 48.6002 52.2322C48.6129 52.2595 50.0513 53.1597 50.0513 53.1597L50.0506 53.1587Z" fill="#6B7B3E"/>
<path d="M50.0507 53.1587C49.3788 52.311 49.0503 51.4786 49.0503 51.4786L47.3887 52.4709L50.0507 53.1587Z" fill="#4B5B19"/>
<path d="M47.0452 57.7426C47.0452 57.7426 45.7785 57.2597 45.4035 57.2421L45.0284 57.2245L45.1226 55.777C45.1226 55.777 46.2863 56.1681 46.2831 56.1987C46.28 56.2294 47.0462 57.7419 47.0462 57.7419L47.0452 57.7426Z" fill="#6B7B3E"/>
<path d="M47.0456 57.7426C46.9083 56.6689 47.0578 55.7869 47.0578 55.7869L45.123 55.777L47.0466 57.7419L47.0456 57.7426Z" fill="#4B5B19"/>
<path d="M44.3558 60.3497C44.3558 60.3497 43.0891 59.8667 42.714 59.8491L42.3389 59.8315L42.4332 58.384C42.4332 58.384 43.5968 58.7752 43.5937 58.8058C43.5906 58.8364 44.3568 60.349 44.3568 60.349L44.3558 60.3497Z" fill="#6B7B3E"/>
<path d="M44.3562 60.3497C44.2189 59.2759 44.3683 58.394 44.3683 58.394L42.4336 58.384L44.3562 60.3497Z" fill="#4B5B19"/>
<path d="M49.1326 54.9549C49.1326 54.9549 47.7992 55.1955 47.4687 55.3756L47.1393 55.555L46.4706 54.2671C46.4706 54.2671 47.6686 54.0017 47.6823 54.0284C47.6949 54.0557 49.1333 54.9559 49.1333 54.9559L49.1326 54.9549Z" fill="#6B7B3E"/>
<path d="M49.1327 54.9549C48.4608 54.1073 48.1323 53.2748 48.1323 53.2748L46.4707 54.2671L49.1327 54.9549Z" fill="#4B5B19"/>
<path d="M48.2791 56.357C48.2791 56.357 46.9456 56.5977 46.6152 56.7778L46.2858 56.9571L45.6171 55.6693C45.6171 55.6693 46.8161 55.4031 46.8288 55.4305C46.8414 55.4579 48.2798 56.3581 48.2798 56.3581L48.2791 56.357Z" fill="#6B7B3E"/>
<path d="M48.2799 56.357C47.608 55.5094 47.2795 54.6769 47.2795 54.6769L45.6172 55.6682L48.2792 56.356L48.2799 56.357Z" fill="#4B5B19"/>
<path d="M50.3089 59.3692C50.3089 59.3692 49.1123 58.7335 48.7415 58.6695L48.3715 58.6065L48.6445 57.1812C48.6445 57.1812 49.7501 57.714 49.7435 57.7439C49.7369 57.7739 50.3096 59.3703 50.3096 59.3703L50.3089 59.3692Z" fill="#6B7B3E"/>
<path d="M50.3097 59.3692C50.3061 58.2869 50.5641 57.43 50.5641 57.43L48.6445 57.1802L50.3097 59.3692Z" fill="#4B5B19"/>
<path d="M51.9034 58.1372C51.9034 58.1372 50.5788 57.8512 50.2053 57.891L49.8319 57.9309L49.7053 56.4852C49.7053 56.4852 50.9146 56.6967 50.916 56.7273C50.9173 56.7579 51.9034 58.1372 51.9034 58.1372Z" fill="#6B7B3E"/>
<path d="M51.9031 58.1372C51.6052 57.0964 51.6193 56.203 51.6193 56.203L49.7051 56.4852L51.9031 58.1372Z" fill="#4B5B19"/>
<path d="M52.0792 56.5475C52.0792 56.5475 50.7546 56.2615 50.3811 56.3013L50.0077 56.3411L49.8811 54.8955C49.8811 54.8955 51.0904 55.107 51.0918 55.1376C51.0931 55.1682 52.0781 56.5482 52.0781 56.5482L52.0792 56.5475Z" fill="#6B7B3E"/>
<path d="M52.0789 56.5475C51.781 55.5066 51.7951 54.6133 51.7951 54.6133L49.8809 54.8955L52.0789 56.5475Z" fill="#4B5B19"/>
<path d="M54.0772 53.3984C54.0772 53.3984 52.7526 53.1124 52.3792 53.1523L52.0057 53.1921L51.8792 51.7464C51.8792 51.7464 53.0885 51.9579 53.0898 51.9885C53.0911 52.0191 54.0772 53.3984 54.0772 53.3984Z" fill="#6B7B3E"/>
<path d="M54.0769 53.3984C53.779 52.3576 53.7932 51.4643 53.7932 51.4643L51.8789 51.7465L54.0769 53.3984Z" fill="#4B5B19"/>
<path d="M52.9795 55.3622C52.9795 55.3622 51.655 55.0762 51.2815 55.1161L50.9081 55.1559L50.7815 53.7103C50.7815 53.7103 51.9908 53.9217 51.9922 53.9523C51.9935 53.9829 52.9795 55.3622 52.9795 55.3622Z" fill="#6B7B3E"/>
<path d="M52.9793 55.3623C52.6814 54.3214 52.6955 53.428 52.6955 53.428L50.7812 53.7103L52.9793 55.3623Z" fill="#4B5B19"/>
<path d="M50.9991 54.9136C50.9991 54.9136 49.6745 54.6276 49.3011 54.6674L48.9276 54.7072L48.801 53.2616C48.801 53.2616 50.0104 53.4731 50.0117 53.5037C50.013 53.5343 50.9991 54.9136 50.9991 54.9136Z" fill="#6B7B3E"/>
<path d="M50.9988 54.9136C50.7009 53.8727 50.715 52.9794 50.715 52.9794L48.8008 53.2616L50.9988 54.9136Z" fill="#4B5B19"/>
<path d="M50.2901 56.6864C50.2901 56.6864 48.9655 56.4004 48.5921 56.4402L48.2186 56.4801L48.0921 55.0344C48.0921 55.0344 49.3014 55.2459 49.3027 55.2765C49.3041 55.3071 50.2908 56.6874 50.2908 56.6874L50.2901 56.6864Z" fill="#6B7B3E"/>
<path d="M50.2899 56.6864C49.9919 55.6455 50.0061 54.7522 50.0061 54.7522L48.0918 55.0344L50.2899 56.6864Z" fill="#4B5B19"/>
<path d="M49.3624 58.1863C49.3624 58.1863 48.0378 57.9003 47.6643 57.9401L47.2909 57.98L47.1643 56.5343C47.1643 56.5343 48.3737 56.7458 48.375 56.7764C48.3763 56.807 49.3624 58.1863 49.3624 58.1863Z" fill="#6B7B3E"/>
<path d="M49.3621 58.1863C49.0642 57.1454 49.0783 56.2521 49.0783 56.2521L47.1641 56.5343L49.3621 58.1863Z" fill="#4B5B19"/>
<path d="M47.8049 59.8509C47.8049 59.8509 46.5765 59.2788 46.2029 59.2348L45.8293 59.1907L46.0261 57.7528C46.0261 57.7528 47.1589 58.2264 47.1534 58.2557C47.1485 58.286 47.8042 59.8499 47.8042 59.8499L47.8049 59.8509Z" fill="#6B7B3E"/>
<path d="M47.8054 59.8509C47.7461 58.7705 47.9572 57.9021 47.9572 57.9021L46.0273 57.7538L47.8044 59.8516L47.8054 59.8509Z" fill="#4B5B19"/>
<path d="M46.4787 60.6115C46.4787 60.6115 45.2503 60.0395 44.8767 59.9954L44.5031 59.9513L44.7 58.5134C44.7 58.5134 45.8328 58.9871 45.8272 59.0164C45.8224 59.0467 46.478 60.6105 46.478 60.6105L46.4787 60.6115Z" fill="#6B7B3E"/>
<path d="M46.4793 60.6116C46.4193 59.5301 46.6311 58.6627 46.6311 58.6627L44.7012 58.5145L46.4782 60.6123L46.4793 60.6116Z" fill="#4B5B19"/>
<path d="M35.8165 28.2608C35.8165 28.2608 36.9788 28.7248 37.3246 28.7458L37.6705 28.7668L37.5628 30.1019C37.5628 30.1019 36.4949 29.7236 36.4973 29.6964C36.5008 29.6685 35.8154 28.2615 35.8154 28.2615L35.8165 28.2608Z" fill="#6B7B3E"/>
<path d="M35.8171 28.2608C35.9288 29.2529 35.7784 30.0651 35.7784 30.0651L37.5645 30.1012L35.8182 28.2601L35.8171 28.2608Z" fill="#4B5B19"/>
<path d="M31.6934 33.0018C31.6934 33.0018 32.9434 33.055 33.2774 32.9595L33.6104 32.8647L33.9521 34.1593C33.9521 34.1593 32.8192 34.1568 32.8127 34.1297C32.8063 34.1026 31.6934 33.0018 31.6934 33.0018Z" fill="#6B7B3E"/>
<path d="M31.6924 33.0018C32.1268 33.9016 32.2533 34.7172 32.2533 34.7172L33.9502 34.16L31.6924 33.0018Z" fill="#4B5B19"/>
<path d="M32.7637 31.3031C32.7637 31.3031 34.0137 31.3563 34.3477 31.2608L34.6808 31.166L35.0225 32.4606C35.0225 32.4606 33.8895 32.4581 33.8831 32.431C33.8766 32.4039 32.7637 31.3031 32.7637 31.3031Z" fill="#6B7B3E"/>
<path d="M32.7627 31.3031C33.1971 32.2029 33.3236 33.0185 33.3236 33.0185L35.0205 32.4613L32.7627 31.3031Z" fill="#4B5B19"/>
<path d="M34.1699 29.6664C34.1699 29.6664 35.3961 29.9159 35.7403 29.875L36.0845 29.834L36.2182 31.1668C36.2182 31.1668 35.1004 30.986 35.0977 30.9579C35.0967 30.93 34.1706 29.6674 34.1706 29.6674L34.1699 29.6664Z" fill="#6B7B3E"/>
<path d="M34.1705 29.6664C34.4576 30.6231 34.4545 31.4489 34.4545 31.4489L36.2182 31.1658L34.1705 29.6664Z" fill="#4B5B19"/>
<path d="M28.7539 40.8362C28.7539 40.8362 29.9364 40.4269 30.2118 40.2167L30.4873 40.0066L31.2795 41.0858C31.2795 41.0858 30.2239 41.4988 30.2086 41.4762C30.1932 41.4537 28.7539 40.8362 28.7539 40.8362Z" fill="#6B7B3E"/>
<path d="M28.7539 40.8362C29.4874 41.5144 29.9048 42.2263 29.9048 42.2263L31.2795 41.0858L28.7539 40.8362Z" fill="#4B5B19"/>
<path d="M29.1094 39.0652C29.1094 39.0652 30.2919 38.6559 30.5673 38.4457L30.8428 38.2356L31.635 39.3148C31.635 39.3148 30.5794 39.7278 30.5641 39.7052C30.5487 39.6827 29.1094 39.0652 29.1094 39.0652Z" fill="#6B7B3E"/>
<path d="M29.1094 39.0652C29.8429 39.7434 30.2603 40.4553 30.2603 40.4553L31.635 39.3148L29.1094 39.0652Z" fill="#4B5B19"/>
<path d="M29.6944 36.9773C29.6944 36.9773 30.9244 36.7456 31.2274 36.5781L31.5305 36.4107L32.1555 37.5948C32.1555 37.5948 31.0516 37.8487 31.0393 37.824C31.0271 37.7994 29.6934 36.978 29.6934 36.978L29.6944 36.9773Z" fill="#6B7B3E"/>
<path d="M29.6952 36.9773C30.3213 37.7555 30.6296 38.5208 30.6296 38.5208L32.1573 37.5941L29.6952 36.9773Z" fill="#4B5B19"/>
<path d="M30.623 34.9973C30.623 34.9973 31.8686 34.881 32.1868 34.7423L32.5049 34.6036L33.0173 35.8404C33.0173 35.8404 31.8938 35.9906 31.8846 35.9638C31.8744 35.9378 30.623 34.9973 30.623 34.9973Z" fill="#6B7B3E"/>
<path d="M30.6235 34.9973C31.1749 35.831 31.4115 36.621 31.4115 36.621L33.0178 35.8404L30.6235 34.9973Z" fill="#4B5B19"/>
<path d="M28.5352 42.7607C28.5352 42.7607 29.7176 42.3513 29.9931 42.1412L30.2686 41.931L31.0607 43.0103C31.0607 43.0103 30.0052 43.4232 29.9898 43.4007C29.9745 43.3781 28.5352 42.7607 28.5352 42.7607Z" fill="#6B7B3E"/>
<path d="M28.5352 42.7607C29.2686 43.4388 29.686 44.1507 29.686 44.1507L31.0607 43.0103L28.5352 42.7607Z" fill="#4B5B19"/>
<path d="M28.2403 44.8654C28.2403 44.8654 29.2957 44.1945 29.5162 43.9258L29.7357 43.6577L30.7555 44.5249C30.7555 44.5249 29.8237 45.1701 29.8032 45.1511C29.7828 45.132 28.2396 44.8644 28.2396 44.8644L28.2403 44.8654Z" fill="#6B7B3E"/>
<path d="M28.2402 44.8654C29.1101 45.3561 29.6815 45.9527 29.6815 45.9527L30.7562 44.526L28.2409 44.8664L28.2402 44.8654Z" fill="#4B5B19"/>
<path d="M28.4805 47.3101C28.4805 47.3101 29.3325 46.3936 29.4769 46.0791L29.6224 45.764L30.8285 46.3453C30.8285 46.3453 30.0907 47.2049 30.0655 47.1921C30.0403 47.1793 28.4805 47.3101 28.4805 47.3101Z" fill="#6B7B3E"/>
<path d="M28.4805 47.3101C29.446 47.5646 30.1492 47.9978 30.1492 47.9978L30.8285 46.3453L28.4805 47.3101Z" fill="#4B5B19"/>
<path d="M28.9801 48.7362C28.9801 48.7362 29.9559 47.9529 30.1442 47.6611L30.3332 47.3703L31.443 48.1207C31.443 48.1207 30.5889 48.8646 30.566 48.8486C30.5432 48.8327 28.9801 48.7362 28.9801 48.7362Z" fill="#6B7B3E"/>
<path d="M28.9805 48.7361C29.8996 49.1273 30.5325 49.6579 30.5325 49.6579L31.4434 48.1207L28.9805 48.7361Z" fill="#4B5B19"/>
<path d="M29.5027 50.8836C29.5027 50.8836 30.2708 49.8968 30.3873 49.5699L30.5037 49.2431L31.7562 49.7162C31.7562 49.7162 31.0968 50.638 31.0712 50.6269C31.0457 50.6158 29.5027 50.8836 29.5027 50.8836Z" fill="#6B7B3E"/>
<path d="M29.502 50.8836C30.4866 51.0516 31.2249 51.4219 31.2249 51.4219L31.7554 49.7162L29.502 50.8836Z" fill="#4B5B19"/>
<path d="M30.3141 52.9285C30.3141 52.9285 30.8079 51.7789 30.8378 51.433L30.8677 51.087L32.1991 51.2289C32.1991 51.2289 31.7942 52.2863 31.7663 52.2828C31.7384 52.2793 30.3134 52.9274 30.3134 52.9274L30.3141 52.9285Z" fill="#6B7B3E"/>
<path d="M30.3145 52.9285C31.3096 52.8432 32.1172 53.0133 32.1172 53.0133L32.1994 51.2289L30.3138 52.9274L30.3145 52.9285Z" fill="#4B5B19"/>
<path d="M31.0593 54.4921C31.0593 54.4921 31.7695 53.4622 31.8666 53.129L31.9637 52.7957L33.2416 53.196C33.2416 53.196 32.6369 54.1541 32.6093 54.1444C32.5834 54.135 31.0586 54.4911 31.0586 54.4911L31.0593 54.4921Z" fill="#6B7B3E"/>
<path d="M31.0586 54.4921C32.0513 54.6036 32.8094 54.9303 32.8094 54.9303L33.2417 53.1971L31.0586 54.4921Z" fill="#4B5B19"/>
<path d="M32.0674 56.3623C32.0674 56.3623 32.5197 55.196 32.5389 54.8498L32.5565 54.5033L33.8922 54.5987C33.8922 54.5987 33.5239 55.6702 33.4967 55.6678C33.4688 55.6643 32.0681 56.3633 32.0681 56.3633L32.0674 56.3623Z" fill="#6B7B3E"/>
<path d="M32.0665 56.3623C33.0585 56.2417 33.8713 56.3842 33.8713 56.3842L33.8913 54.5987L32.0665 56.3623Z" fill="#4B5B19"/>
<path d="M33.7122 58.1866C33.7122 58.1866 33.856 56.944 33.7855 56.6049L33.7151 56.2658L35.0316 56.0201C35.0316 56.0201 34.9459 57.1498 34.9191 57.1545C34.8916 57.1582 33.7119 58.1884 33.7119 58.1884L33.7122 58.1866Z" fill="#6B7B3E"/>
<path d="M33.7117 58.1866C34.6408 57.8193 35.4631 57.7513 35.4631 57.7513L35.0314 56.0184L33.7117 58.1866Z" fill="#4B5B19"/>
<path d="M34.9599 59.0398C34.9599 59.0398 35.2811 57.8308 35.2611 57.4843L35.2412 57.1378L36.5792 57.0846C36.5792 57.0846 36.332 58.1907 36.3034 58.1907C36.2749 58.1906 34.9599 59.0398 34.9599 59.0398Z" fill="#6B7B3E"/>
<path d="M34.959 59.0398C35.9307 58.81 36.7553 58.862 36.7553 58.862L36.5784 57.0846L34.959 59.0398Z" fill="#4B5B19"/>
<path d="M36.6519 60.4602C36.6519 60.4602 36.6855 59.2101 36.5862 58.8771L36.4859 58.5448L37.7751 58.1842C37.7751 58.1842 37.7896 59.3177 37.7624 59.3242C37.7353 59.3306 36.6508 60.4609 36.6508 60.4609L36.6519 60.4602Z" fill="#6B7B3E"/>
<path d="M36.6522 60.4602C37.5447 60.0128 38.3584 59.8726 38.3584 59.8726L37.7755 58.1842L36.6522 60.4602Z" fill="#4B5B19"/>
<path d="M38.7115 61.5214C38.7115 61.5214 38.4277 60.3029 38.2472 60.0072L38.0668 59.7115L39.2229 59.0365C39.2229 59.0365 39.5234 60.1296 39.4988 60.1419C39.4738 60.1559 38.7105 61.5221 38.7105 61.5221L38.7115 61.5214Z" fill="#6B7B3E"/>
<path d="M38.7119 61.5213C39.4633 60.8624 40.2142 60.522 40.2142 60.522L39.2233 59.0365L38.7109 61.522L38.7119 61.5213Z" fill="#4B5B19"/>
<path d="M37.1153 28.3679C37.1153 28.3679 38.2776 28.832 38.6235 28.8529L38.9693 28.8739L38.8616 30.2091C38.8616 30.2091 37.7937 29.8307 37.7962 29.8035C37.7997 29.7756 37.1143 28.3686 37.1143 28.3686L37.1153 28.3679Z" fill="#6B7B3E"/>
<path d="M37.116 28.3679C37.2267 29.3607 37.0772 30.1722 37.0772 30.1722L38.8633 30.2084L37.117 28.3672L37.116 28.3679Z" fill="#4B5B19"/>
<path d="M32.9922 33.1088C32.9922 33.1088 34.2422 33.162 34.5763 33.0665L34.9093 32.9717L35.251 34.2663C35.251 34.2663 34.118 34.2639 34.1116 34.2368C34.1051 34.2097 32.9922 33.1088 32.9922 33.1088Z" fill="#6B7B3E"/>
<path d="M32.9912 33.1088C33.4257 34.0087 33.5521 34.8242 33.5521 34.8242L35.249 34.267L32.9912 33.1088Z" fill="#4B5B19"/>
<path d="M34.0605 31.4102C34.0605 31.4102 35.3106 31.4634 35.6446 31.3679L35.9776 31.2731L36.3193 32.5676C36.3193 32.5676 35.1864 32.5652 35.18 32.5381C35.1735 32.511 34.0605 31.4102 34.0605 31.4102Z" fill="#6B7B3E"/>
<path d="M34.0615 31.4102C34.4959 32.31 34.6224 33.1256 34.6224 33.1256L36.3193 32.5683L34.0615 31.4102Z" fill="#4B5B19"/>
<path d="M35.4688 29.7745C35.4688 29.7745 36.6949 30.024 37.0392 29.983L37.3834 29.9421L37.5171 31.2749C37.5171 31.2749 36.3992 31.0941 36.3965 31.066C36.3938 31.0378 35.4694 29.7755 35.4694 29.7755L35.4688 29.7745Z" fill="#6B7B3E"/>
<path d="M35.4694 29.7745C35.7565 30.7312 35.7534 31.557 35.7534 31.557L37.517 31.2739L35.4694 29.7745Z" fill="#4B5B19"/>
<path d="M30.0527 40.9434C30.0527 40.9434 31.2352 40.534 31.5107 40.3238L31.7861 40.1137L32.5783 41.1929C32.5783 41.1929 31.5228 41.6059 31.5074 41.5833C31.4921 41.5608 30.0527 40.9434 30.0527 40.9434Z" fill="#6B7B3E"/>
<path d="M30.0527 40.9434C30.7862 41.6215 31.2037 42.3334 31.2037 42.3334L32.5783 41.1929L30.0527 40.9434Z" fill="#4B5B19"/>
<path d="M30.4082 39.1723C30.4082 39.1723 31.5907 38.7629 31.8661 38.5528L32.1416 38.3426L32.9338 39.4219C32.9338 39.4219 31.8782 39.8348 31.8629 39.8123C31.8475 39.7897 30.4082 39.1723 30.4082 39.1723Z" fill="#6B7B3E"/>
<path d="M30.4082 39.1723C31.1417 39.8504 31.5591 40.5623 31.5591 40.5623L32.9338 39.4219L30.4082 39.1723Z" fill="#4B5B19"/>
<path d="M30.9932 37.0843C30.9932 37.0843 32.2222 36.8533 32.5263 36.6852L32.8293 36.5178L33.4544 37.7019C33.4544 37.7019 32.3505 37.9557 32.3382 37.9311C32.3259 37.9064 30.9922 37.085 30.9922 37.085L30.9932 37.0843Z" fill="#6B7B3E"/>
<path d="M30.994 37.0843C31.6202 37.8626 31.9284 38.6279 31.9284 38.6279L33.4562 37.7012L30.994 37.0843Z" fill="#4B5B19"/>
<path d="M31.9238 35.1053C31.9238 35.1053 33.1694 34.9891 33.4875 34.8504L33.8057 34.7117L34.3181 35.9485C34.3181 35.9485 33.1946 36.0987 33.1854 36.0719C33.1751 36.0459 31.9249 35.1046 31.9249 35.1046L31.9238 35.1053Z" fill="#6B7B3E"/>
<path d="M31.9234 35.1053C32.4748 35.939 32.7103 36.7298 32.7103 36.7298L34.3166 35.9492L31.9224 35.106L31.9234 35.1053Z" fill="#4B5B19"/>
<path d="M29.834 42.8688C29.834 42.8688 31.0165 42.4594 31.2919 42.2493L31.5674 42.0391L32.3596 43.1184C32.3596 43.1184 31.304 43.5313 31.2887 43.5088C31.2733 43.4862 29.834 42.8688 29.834 42.8688Z" fill="#6B7B3E"/>
<path d="M29.834 42.8688C30.5675 43.5469 30.9849 44.2588 30.9849 44.2588L32.3596 43.1184L29.834 42.8688Z" fill="#4B5B19"/>
<path d="M29.5391 44.9735C29.5391 44.9735 30.5945 44.3026 30.815 44.0339L31.0346 43.7658L32.0543 44.633C32.0543 44.633 31.1225 45.2782 31.1021 45.2592C31.0816 45.2401 29.5384 44.9725 29.5384 44.9725L29.5391 44.9735Z" fill="#6B7B3E"/>
<path d="M29.5391 44.9735C30.4089 45.4642 30.9803 46.0607 30.9803 46.0607L32.055 44.6341L29.5398 44.9745L29.5391 44.9735Z" fill="#4B5B19"/>
<path d="M30.6036 46.0143C30.6036 46.0143 31.659 45.3434 31.8795 45.0746L32.099 44.8066L33.1188 45.6738C33.1188 45.6738 32.187 46.319 32.1665 46.3C32.146 46.2809 30.6029 46.0132 30.6029 46.0132L30.6036 46.0143Z" fill="#6B7B3E"/>
<path d="M30.6035 46.0143C31.4744 46.5043 32.0448 47.1015 32.0448 47.1015L33.1194 45.6748L30.6042 46.0153L30.6035 46.0143Z" fill="#4B5B19"/>
<path d="M31.086 43.9817C31.086 43.9817 32.1414 43.3108 32.3619 43.042L32.5814 42.774L33.6012 43.6412C33.6012 43.6412 32.6694 44.2864 32.6489 44.2673C32.6285 44.2483 31.0853 43.9806 31.0853 43.9806L31.086 43.9817Z" fill="#6B7B3E"/>
<path d="M31.0859 43.9817C31.9568 44.4717 32.5272 45.0689 32.5272 45.0689L33.6018 43.6422L31.0866 43.9827L31.0859 43.9817Z" fill="#4B5B19"/>
<path d="M31.377 41.8628C31.377 41.8628 32.4324 41.192 32.6529 40.9232L32.8724 40.6552L33.8929 41.5234C33.8929 41.5234 32.9611 42.1686 32.9406 42.1496C32.9201 42.1305 31.377 41.8628 31.377 41.8628Z" fill="#6B7B3E"/>
<path d="M31.377 41.8629C32.2479 42.3529 32.8182 42.9501 32.8182 42.9501L33.8929 41.5234L31.3777 41.8639L31.377 41.8629Z" fill="#4B5B19"/>
<path d="M32.209 38.7757C32.209 38.7757 33.4239 38.4778 33.7185 38.2936L34.0121 38.1101L34.7011 39.2581C34.7011 39.2581 33.6126 39.572 33.5986 39.547C33.5846 39.5221 32.209 38.7757 32.209 38.7757Z" fill="#6B7B3E"/>
<path d="M32.209 38.7757C32.8767 39.5181 33.2264 40.2672 33.2264 40.2672L34.7011 39.2581L32.209 38.7757Z" fill="#4B5B19"/>
<path d="M32.6836 36.5223C32.6836 36.5223 33.8985 36.2244 34.1931 36.0402L34.4867 35.8567L35.1757 37.0048C35.1757 37.0048 34.0872 37.3186 34.0732 37.2937C34.0592 37.2687 32.6836 36.5223 32.6836 36.5223Z" fill="#6B7B3E"/>
<path d="M32.6836 36.5223C33.3514 37.2648 33.701 38.0138 33.701 38.0138L35.1757 37.0048L32.6836 36.5223Z" fill="#4B5B19"/>
<path d="M29.7812 47.4175C29.7812 47.4175 30.6333 46.501 30.7777 46.1866L30.9232 45.8714L32.1293 46.4527C32.1293 46.4527 31.3915 47.3123 31.3663 47.2995C31.3411 47.2867 29.7812 47.4175 29.7812 47.4175Z" fill="#6B7B3E"/>
<path d="M29.7812 47.4175C30.7468 47.672 31.45 48.1052 31.45 48.1052L32.1293 46.4527L29.7812 47.4175Z" fill="#4B5B19"/>
<path d="M30.2809 48.8436C30.2809 48.8436 31.2567 48.0603 31.445 47.7685L31.634 47.4777L32.7438 48.2281C32.7438 48.2281 31.8897 48.972 31.8668 48.956C31.844 48.9401 30.2809 48.8436 30.2809 48.8436Z" fill="#6B7B3E"/>
<path d="M30.2812 48.8436C31.2004 49.2347 31.8333 49.7653 31.8333 49.7653L32.7442 48.2281L30.2812 48.8436Z" fill="#4B5B19"/>
<path d="M30.8015 50.9907C30.8015 50.9907 31.5697 50.0039 31.6861 49.677L31.8025 49.3501L33.055 49.8233C33.055 49.8233 32.3956 50.745 32.3701 50.7339C32.3445 50.7229 30.8015 50.9907 30.8015 50.9907Z" fill="#6B7B3E"/>
<path d="M30.8008 50.9907C31.7854 51.1586 32.5238 51.5289 32.5238 51.5289L33.0543 49.8232L30.8008 50.9907Z" fill="#4B5B19"/>
<path d="M31.6149 53.0359C31.6149 53.0359 32.1087 51.8863 32.1386 51.5404L32.1685 51.1944L33.4999 51.3363C33.4999 51.3363 33.095 52.3938 33.0671 52.3903C33.0392 52.3868 31.6142 53.0349 31.6142 53.0349L31.6149 53.0359Z" fill="#6B7B3E"/>
<path d="M31.6152 53.0359C32.6104 52.9506 33.418 53.1207 33.418 53.1207L33.5002 51.3363L31.6145 53.0349L31.6152 53.0359Z" fill="#4B5B19"/>
<path d="M32.3581 54.5985C32.3581 54.5985 33.0684 53.5685 33.1655 53.2353L33.2626 52.9021L34.5405 53.3024C34.5405 53.3024 33.9358 54.2605 33.9082 54.2508C33.8823 54.2414 32.3574 54.5974 32.3574 54.5974L32.3581 54.5985Z" fill="#6B7B3E"/>
<path d="M32.3574 54.5984C33.3501 54.71 34.1083 55.0367 34.1083 55.0367L34.5405 53.3034L32.3574 54.5984Z" fill="#4B5B19"/>
<path d="M33.3682 56.4686C33.3682 56.4686 33.8205 55.3023 33.8397 54.9561L33.8572 54.6096L35.193 54.705C35.193 54.705 34.8247 55.7766 34.7975 55.7741C34.7696 55.7706 33.3689 56.4697 33.3689 56.4697L33.3682 56.4686Z" fill="#6B7B3E"/>
<path d="M33.3672 56.4686C34.3593 56.348 35.1721 56.4905 35.1721 56.4905L35.1921 54.705L33.3672 56.4686Z" fill="#4B5B19"/>
<path d="M35.0111 58.2947C35.0111 58.2947 35.1548 57.052 35.0844 56.7129L35.0139 56.3739L36.3304 56.1282C36.3304 56.1282 36.2447 57.2579 36.2179 57.2626C36.1905 57.2663 35.0107 58.2965 35.0107 58.2965L35.0111 58.2947Z" fill="#6B7B3E"/>
<path d="M35.0105 58.2947C35.9396 57.9274 36.7619 57.8594 36.7619 57.8594L36.3302 56.1265L35.0105 58.2947Z" fill="#4B5B19"/>
<path d="M36.2587 59.1479C36.2587 59.1479 36.5799 57.9389 36.5599 57.5924L36.54 57.2459L37.878 57.1927C37.878 57.1927 37.6308 58.2988 37.6022 58.2988C37.5737 58.2987 36.2587 59.1479 36.2587 59.1479Z" fill="#6B7B3E"/>
<path d="M36.2578 59.148C37.2296 58.9181 38.0541 58.9701 38.0541 58.9701L37.8772 57.1927L36.2578 59.148Z" fill="#4B5B19"/>
<path d="M37.9507 60.5677C37.9507 60.5677 37.9843 59.3175 37.885 58.9845L37.7847 58.6522L39.074 58.2917C39.074 58.2917 39.0884 59.4251 39.0613 59.4316C39.0342 59.438 37.9497 60.5684 37.9497 60.5684L37.9507 60.5677Z" fill="#6B7B3E"/>
<path d="M37.951 60.5677C38.8435 60.1202 39.6573 59.98 39.6573 59.98L39.0743 58.2916L37.951 60.5677Z" fill="#4B5B19"/>
<path d="M40.0123 61.6295C40.0123 61.6295 39.7284 60.411 39.548 60.1153L39.3676 59.8196L40.5237 59.1446C40.5237 59.1446 40.8242 60.2377 40.7996 60.25C40.7746 60.264 40.0113 61.6302 40.0113 61.6302L40.0123 61.6295Z" fill="#6B7B3E"/>
<path d="M40.0127 61.6294C40.7641 60.9705 41.515 60.6301 41.515 60.6301L40.5241 59.1446L40.0117 61.6301L40.0127 61.6294Z" fill="#4B5B19"/>
<path d="M31.6232 47.6543C31.6232 47.6543 32.702 47.02 32.9298 46.7598L33.1587 46.4988L34.1486 47.4014C34.1486 47.4014 33.1962 48.0142 33.175 47.9941C33.1555 47.9743 31.6225 47.6533 31.6225 47.6533L31.6232 47.6543Z" fill="#6B7B3E"/>
<path d="M31.623 47.6543C32.4757 48.1748 33.0256 48.7904 33.0256 48.7904L34.1484 47.4014L31.623 47.6543Z" fill="#4B5B19"/>
<path d="M31.6037 46.4573C31.6037 46.4573 32.6825 45.8229 32.9103 45.5627L33.1392 45.3018L34.1291 46.2044C34.1291 46.2044 33.1766 46.8171 33.1555 46.797C33.136 46.7773 31.603 46.4562 31.603 46.4562L31.6037 46.4573Z" fill="#6B7B3E"/>
<path d="M31.6035 46.4573C32.4562 46.9777 33.006 47.5934 33.006 47.5934L34.1289 46.2044L31.6035 46.4573Z" fill="#4B5B19"/>
<path d="M31.8674 49.9933C31.8674 49.9933 32.9461 49.359 33.174 49.0988L33.4028 48.8379L34.3927 49.7404C34.3927 49.7404 33.4403 50.3532 33.4191 50.3331C33.3997 50.3134 31.8667 49.9923 31.8667 49.9923L31.8674 49.9933Z" fill="#6B7B3E"/>
<path d="M31.8672 49.9933C32.7198 50.5138 33.2697 51.1294 33.2697 51.1294L34.3925 49.7405L31.8672 49.9933Z" fill="#4B5B19"/>
<path d="M49.432 27.1C49.432 27.1 49.0405 28.3975 49.0487 28.773L49.0586 29.1488L47.6076 29.1574C47.6076 29.1574 47.916 27.9692 47.9452 27.9702C47.9755 27.9706 49.4302 27.0997 49.4302 27.0997L49.432 27.1Z" fill="#6B7B3E"/>
<path d="M49.4325 27.1C48.3712 27.3129 47.4816 27.2271 47.4816 27.2271L47.6089 29.1584L49.4325 27.1Z" fill="#4B5B19"/>
<path d="M51.0355 28.3242C51.0355 28.3242 50.644 29.6217 50.6522 29.9972L50.6621 30.373L49.2112 30.3816C49.2112 30.3816 49.5195 29.1933 49.5498 29.1937C49.58 29.1941 51.0348 28.3232 51.0348 28.3232L51.0355 28.3242Z" fill="#6B7B3E"/>
<path d="M51.036 28.3242C49.9747 28.537 49.0851 28.4513 49.0851 28.4513L49.2124 30.3826L51.036 28.3242Z" fill="#4B5B19"/>
<path d="M50.8551 30.3514C50.8551 30.3514 50.1582 31.5133 50.0752 31.8804L49.9932 32.2469L48.5845 31.9012C48.5845 31.9012 49.1742 30.8243 49.2029 30.8333C49.2325 30.8416 50.8558 30.3525 50.8558 30.3525L50.8551 30.3514Z" fill="#6B7B3E"/>
<path d="M50.8558 30.3514C49.7754 30.2982 48.9328 29.9974 48.9328 29.9974L48.5835 31.9008L50.8565 30.3524L50.8558 30.3514Z" fill="#4B5B19"/>
<path d="M49.4026 29.6547C49.4026 29.6547 49.0017 30.9495 49.0089 31.3257L49.0161 31.7019L47.5651 31.7016C47.5651 31.7016 47.881 30.5156 47.9113 30.516C47.9423 30.5174 49.4026 29.6547 49.4026 29.6547Z" fill="#6B7B3E"/>
<path d="M49.4018 29.6547C48.3391 29.861 47.4498 29.7691 47.4498 29.7691L47.5643 31.7015L49.4008 29.6554L49.4018 29.6547Z" fill="#4B5B19"/>
<path d="M47.5699 27.1509C47.5699 27.1509 47.196 28.4543 47.2108 28.8284L47.2252 29.2042L45.7748 29.2334C45.7748 29.2334 46.0659 28.0419 46.0972 28.0416C46.1274 28.042 47.571 27.1502 47.571 27.1502L47.5699 27.1509Z" fill="#6B7B3E"/>
<path d="M47.5692 27.1509C46.5111 27.3795 45.6203 27.3052 45.6203 27.3052L45.7747 29.2344L47.5699 27.1519L47.5692 27.1509Z" fill="#4B5B19"/>
<path d="M45.6419 24.7124C45.6419 24.7124 45.7661 26.0622 45.9167 26.4066L46.0674 26.7511L44.7271 27.3055C44.7271 27.3055 44.5661 26.0889 44.5931 26.078C44.6219 26.0674 45.6419 24.7124 45.6419 24.7124Z" fill="#6B7B3E"/>
<path d="M45.6428 24.7124C44.7397 25.3096 43.8821 25.5637 43.8821 25.5637L44.7263 27.3052L45.6428 24.7124Z" fill="#4B5B19"/>
<path d="M43.2534 24.4202C43.2534 24.4202 44.1195 25.4626 44.4375 25.663L44.756 25.8617L43.9633 27.0769C43.9633 27.0769 43.1422 26.1643 43.1594 26.1391C43.1767 26.1138 43.2534 24.4202 43.2534 24.4202Z" fill="#6B7B3E"/>
<path d="M43.254 24.4202C42.8461 25.4227 42.2832 26.1182 42.2832 26.1182L43.9639 27.0769L43.254 24.4202Z" fill="#4B5B19"/>
<path d="M42.1635 25.7091C42.1635 25.7091 43.0296 26.7515 43.3477 26.9519L43.6661 27.1506L42.8734 28.3658C42.8734 28.3658 42.0523 27.4532 42.0703 27.429C42.0876 27.4037 42.1642 25.7101 42.1642 25.7101L42.1635 25.7091Z" fill="#6B7B3E"/>
<path d="M42.1641 25.7091C41.7563 26.7116 41.1933 27.4071 41.1933 27.4071L42.874 28.3658L42.1641 25.7091Z" fill="#4B5B19"/>
<path d="M45.9236 26.7505C45.9236 26.7505 45.6359 28.0748 45.6747 28.4489L45.7146 28.8224L44.2692 28.9472C44.2692 28.9472 44.4814 27.7389 44.5113 27.7366C44.5419 27.7352 45.9226 26.7512 45.9226 26.7512L45.9236 26.7505Z" fill="#6B7B3E"/>
<path d="M45.9245 26.7505C44.884 27.0467 43.9899 27.0316 43.9899 27.0316L44.2711 28.9465L45.9255 26.7499L45.9245 26.7505Z" fill="#4B5B19"/>
<path d="M43.8237 26.5118C43.8237 26.5118 42.6004 27.8237 42.1987 27.6922C41.7961 27.5614 41.6424 26.8754 41.6424 26.8754C41.6424 26.8754 41.2415 27.7186 40.7374 27.897C40.2332 28.0754 40.0094 27.2886 40.0094 27.2886L39.932 27.6354C39.8546 27.9822 39.6748 28.4737 39.3805 28.5812C39.0868 28.6897 38.6486 27.9935 38.6486 27.9935C38.6486 27.9935 38.8628 28.7133 38.3283 29.3339C37.7946 29.9555 36.9539 29.0188 36.9539 29.0188C36.9539 29.0188 37.1498 29.5486 37.2755 29.9776C37.3662 30.2848 37.3325 30.5899 37.1865 30.7809C37.2174 30.6368 37.228 30.5665 37.2097 30.5925C37.1748 30.6448 37.1424 30.7404 37.1075 30.8632C37.0642 30.8987 37.015 30.9277 36.9594 30.9475C36.6311 31.0602 35.7278 30.5712 35.7278 30.5712C35.7278 30.5712 36.6496 32.1533 36.4222 32.5288C36.3784 32.5856 36.3332 32.6404 36.2849 32.6928C35.629 33.3841 34.2568 32.8365 34.2568 32.8365C34.2568 32.8365 35.5824 34.3266 35.0612 34.7642C34.54 35.2017 33.2508 35.3222 33.2508 35.3222C33.2508 35.3222 35.0363 36.3355 34.6462 36.9808C34.2568 37.6272 33.0902 37.9387 33.0902 37.9387C33.0902 37.9387 33.1881 37.9635 33.7823 38.3314C34.3038 38.6543 34.439 39.0709 34.3159 39.5268C33.7262 40.1191 32.4989 39.8988 32.4989 39.8988C32.4989 39.8988 34.0967 41.0925 33.6752 41.6257C33.2537 42.1588 32.0138 42.5368 32.0138 42.5368C32.0138 42.5368 33.9661 43.1694 33.7142 43.8811C33.4623 44.5928 32.3819 45.1322 32.3819 45.1322C32.3819 45.1322 32.4827 45.1371 33.1386 45.3774C33.4714 45.5004 33.683 45.6788 33.7983 45.8988C33.8017 45.994 33.7986 46.0997 33.7822 46.2143C33.7029 46.783 32.5151 46.6603 32.5151 46.6603C32.5151 46.6603 33.6306 47.3244 33.7062 47.9045C33.7818 48.4846 32.4159 48.7834 32.4159 48.7834C32.4159 48.7834 33.9426 49.3683 33.9194 49.8012C33.8952 50.2348 32.9221 51.2908 32.9727 51.3298C33.0233 51.3689 34.3952 51.2926 34.3952 51.2926L33.3856 52.6914L34.5366 52.4715L33.4774 54.5178L34.9643 54.2161L34.3437 56.3313L36.031 55.8196L35.9474 56.9568L36.5589 56.8103C36.5589 56.8103 38.4451 59.749 40.2377 59.8872C44.2179 60.1932 48.6557 57.0893 49.9874 49.4411C50.4122 47.0032 50.5446 42.1689 50.5401 41.1382C50.5276 38.4041 49.7351 34.6305 49.2668 33.4716C46.957 27.7593 44.4911 27.5245 44.0409 27.5927C43.5906 27.6608 43.8185 26.5108 43.8185 26.5108L43.8237 26.5118Z" fill="#FFE6C1"/>
<path d="M36.4209 36.2814C35.6325 38.6414 34.9893 44.0187 35.1272 46.1483C35.2643 48.2769 35.2862 50.7076 36.0703 52.3235C36.8544 53.9393 38.4565 56.1128 38.69 57.0085C38.9235 57.9042 39.962 59.8209 41.5342 59.3426C43.107 58.8653 43.7391 58.5863 46.048 55.7248C48.3557 52.864 49.3812 50.374 49.4648 47.858C49.5491 45.343 49.131 43.7689 49.1003 42.1424C49.0542 39.6188 47.8817 32.38 45.1552 29.3026C43.871 27.8533 39.6753 26.5329 36.4196 36.2794L36.4209 36.2814Z" fill="#F4C895"/>
<path d="M36.1407 45.1357C36.1407 45.1357 36.1017 50.3294 36.5494 51.6254C36.997 52.9213 38.4319 54.6115 38.8678 55.4099C39.3036 56.2083 39.7243 57.143 39.9086 57.7331C40.093 58.3231 40.8715 59.0937 41.7364 58.575C42.6014 58.0563 43.9112 56.3735 44.9791 55.0008C46.0478 53.6292 47.627 51.6173 47.9035 50.7523C48.18 49.8873 48.1815 48.524 48.3401 46.4595C48.4976 44.3957 48.3102 42.744 48.3553 42.2617C48.5519 40.1517 47.538 35.7382 47.538 35.7382L38.312 45.6536L36.1417 45.135L36.1407 45.1357Z" fill="#E77F40"/>
<path d="M40.6346 57.6825C40.8953 57.9265 41.2915 57.9552 41.5859 57.7531C42.5926 57.0659 42.4315 56.5605 45.6964 52.5916C47.218 50.7419 47.6336 47.9292 47.6251 46.3882C47.6159 44.8461 48.385 41.398 47.9079 37.396C47.4308 33.394 45.3793 29.9483 44.1951 29.2561C43.2873 28.7252 39.0463 28.4813 37.3892 34.5177C35.7322 40.5541 35.8753 44.3125 36.0939 47.2588C36.3125 50.2052 36.615 51.7815 38.659 54.2601C40.8909 56.9662 39.9937 57.0852 40.6336 57.6832L40.6346 57.6825Z" fill="#FFCA00"/>
<path d="M40.0137 30.7754C39.6542 31.1838 39.3542 31.6507 39.0941 32.128C38.0231 34.0863 37.5086 36.3287 37.6217 38.5322C37.6918 39.9083 38.1543 41.0696 38.7566 42.2842C39.2863 43.3502 40.831 43.3317 41.7832 42.8331C42.7313 42.3374 43.3251 41.3612 43.7615 40.3918C45.087 37.4545 45.7635 33.7319 44.2563 30.7946C43.8978 30.0966 43.3841 29.5493 42.5427 29.5013C41.9687 29.4692 41.3949 29.671 40.9093 29.9868C40.5724 30.2058 40.2759 30.4753 40.012 30.7751L40.0137 30.7754Z" fill="#FFDF82"/>
<path d="M36.9994 50.7238C36.9973 50.7823 37.002 50.8421 37.0132 50.9005C37.0719 51.2266 37.2445 51.5726 37.3888 51.8704C37.5683 52.2418 37.7803 52.597 38.0199 52.9334C38.8924 54.1635 39.9058 55.017 40.1294 55.7769C40.353 56.5369 40.616 57.2489 41.0961 57.1079C41.5744 56.9666 42.1471 55.7964 42.9746 54.6941C43.8021 53.5918 45.241 51.962 45.7297 50.9194C46.2173 49.8776 46.5553 47.5589 46.65 46.5042C46.7447 45.4494 46.9355 43.6855 47.0072 42.804C47.0796 41.9235 46.2751 42.0574 45.4985 45.1265C44.7219 48.1956 43.6506 50.1646 42.3117 51.4742C41.6806 52.0917 40.7999 52.3781 39.9259 52.3042C39.5806 52.2753 39.2328 52.1942 38.92 52.0412C38.4953 51.8339 38.2633 51.4428 37.966 51.0856C37.7836 50.8663 37.5992 50.6484 37.4113 50.4343C37.3578 50.3732 37.2866 50.3062 37.2076 50.3225C37.1603 50.3322 37.1245 50.3701 37.0974 50.4095C37.0354 50.5013 37.0066 50.611 37.0022 50.7235L36.9994 50.7238Z" fill="#FFB41A"/>
<path d="M36.9518 47.4439C36.8192 47.3947 36.6736 47.4804 36.6516 47.6199C36.6205 47.8166 36.674 48.1088 37.0993 48.4027C37.8411 48.9147 39.4518 49.3343 39.8549 49.0627C40.2591 48.7904 39.8644 48.5371 39.1723 48.4219C38.4809 48.3078 37.9671 48.1657 37.6588 47.9466C37.3505 47.7275 37.1026 47.5002 36.9552 47.4446C36.9545 47.4436 36.9528 47.4432 36.9511 47.4429L36.9518 47.4439Z" fill="#FFB41A"/>
<path d="M37.2401 49.2567C37.3998 49.4074 38.6515 50.0116 38.9883 50.0523C39.3261 50.0922 39.197 50.2222 39.0561 50.2597C38.9151 50.2972 38.1569 50.0035 37.6413 49.6915C37.1257 49.3796 36.9204 49.2809 36.9717 49.2129C37.023 49.145 37.2401 49.2567 37.2401 49.2567Z" fill="#FFB41A"/>
<path d="M43.0907 46.8606C43.8188 47.1013 45.4405 47.2134 46.1603 46.9001C46.8791 46.5876 47.1637 44.8798 46.6687 44.9439C46.1727 45.0087 45.3191 45.9053 44.4178 45.9566C43.5166 46.0079 42.9576 46.0705 42.8025 46.3472C42.6474 46.6239 42.9513 46.8145 43.0907 46.8606Z" fill="#FFB41A"/>
<path d="M36.8031 42.9347C36.8031 42.9347 36.7914 45.0342 36.8952 45.7482C36.9989 46.4622 38.042 47.3811 38.9098 47.4591C39.7776 47.5371 41.4584 46.6368 41.7727 45.2944C42.0881 43.9513 41.0136 43.9046 39.7707 43.7759C38.5278 43.6473 37.9232 41.8147 37.3883 41.807C36.8534 41.7993 36.8014 42.9344 36.8014 42.9344L36.8031 42.9347Z" fill="#FFDF82"/>
</svg>
